<svg xmlns="http://www.w3.org/2000/svg" width="39" height="29" viewBox="0 0 39 29">
  <g id="icon" transform="translate(49)">
    <rect id="Guide_box" data-name="Guide box" width="39" height="29" transform="translate(-49)" fill="none"/>
    <g id="그룹_6" data-name="그룹 6" transform="translate(-45.064 -0.28)">
      <path id="패스_42" data-name="패스 42" d="M28.708,15.973a1.311,1.311,0,0,1,.05,1.9c-2.035,2.037-7.255,6.517-13.782,6.517-6.156,0-11.34-4.651-13.271-6.632a1.3,1.3,0,0,1-.036-1.784c1.9-2.117,7.113-7.22,13.308-7.22C20.178,8.75,26.361,13.85,28.708,15.973Z" transform="translate(0 1.669)" fill="none" stroke="#000" stroke-linecap="round" stroke-linejoin="round" stroke-width="1"/>
      <path id="패스_43" data-name="패스 43" d="M11.8,7.16V3.25" transform="translate(3.176 0)" fill="none" stroke="#000" stroke-linecap="round" stroke-linejoin="round" stroke-width="1"/>
      <path id="패스_44" data-name="패스 44" d="M7.952,6.857,7.3,4.25" transform="translate(1.81 0.303)" fill="none" stroke="#000" stroke-linecap="round" stroke-linejoin="round" stroke-width="1"/>
      <path id="패스_45" data-name="패스 45" d="M5.6,8.205,4.3,6.25" transform="translate(0.9 0.91)" fill="none" stroke="#000" stroke-linecap="round" stroke-linejoin="round" stroke-width="1"/>
      <path id="패스_46" data-name="패스 46" d="M3.755,10.205,1.8,8.25" transform="translate(0.142 1.517)" fill="none" stroke="#000" stroke-linecap="round" stroke-linejoin="round" stroke-width="1"/>
      <path id="패스_47" data-name="패스 47" d="M15.8,6.857l.652-2.607" transform="translate(4.389 0.303)" fill="none" stroke="#000" stroke-linecap="round" stroke-linejoin="round" stroke-width="1"/>
      <path id="패스_48" data-name="패스 48" d="M18.3,8.205,19.6,6.25" transform="translate(5.148 0.91)" fill="none" stroke="#000" stroke-linecap="round" stroke-linejoin="round" stroke-width="1"/>
      <path id="패스_49" data-name="패스 49" d="M20.3,10.205,22.255,8.25" transform="translate(5.755 1.517)" fill="none" stroke="#000" stroke-linecap="round" stroke-linejoin="round" stroke-width="1"/>
      <path id="패스_51" data-name="패스 51" d="M5.8,16.57a7.82,7.82,0,1,0,7.82-7.82A7.82,7.82,0,0,0,5.8,16.57Z" transform="translate(1.355 1.669)" fill="none" stroke="#000" stroke-linecap="round" stroke-linejoin="round" stroke-width="1"/>
    </g>
  </g>
</svg>
