<svg xmlns="http://www.w3.org/2000/svg" width="233.504" height="240.449" viewBox="0 0 233.504 240.449">
  <g id="img" transform="translate(-894.293 -1422.135)">
    <g id="half_circle" data-name="half circle" transform="translate(898.14 1432.927)">
      <g id="그룹_20" data-name="그룹 20" transform="translate(-38.7 174.922) rotate(-76)">
        <path id="패스_148" data-name="패스 148" d="M21.449,57.831A93.995,93.995,0,0,1,154.377,190.76l6.647,6.647A103.4,103.4,0,0,0,14.8,51.184Z" transform="translate(7.224 10.225)" fill="none" stroke="#f8f8f4" stroke-miterlimit="10" stroke-width="1.103"/>
        <path id="패스_149" data-name="패스 149" d="M85.708,36.662A84.6,84.6,0,0,1,145.551,181.03l6.647,6.646A93.995,93.995,0,0,0,19.27,54.748l6.646,6.647A84.312,84.312,0,0,1,85.708,36.662Z" transform="translate(9.405 13.307)" fill="none" stroke="#f8f8f4" stroke-miterlimit="10" stroke-width="1.103"/>
        <path id="패스_150" data-name="패스 150" d="M83.529,33.58A84.312,84.312,0,0,0,23.736,58.313l6.647,6.646A75.2,75.2,0,0,1,136.726,171.3l6.646,6.647A84.6,84.6,0,0,0,83.529,33.58Z" transform="translate(11.584 16.388)" fill="none" stroke="#f8f8f4" stroke-miterlimit="10" stroke-width="1.103"/>
        <path id="패스_151" data-name="패스 151" d="M81.348,49.293a65.8,65.8,0,0,1,46.55,112.28l6.647,6.647A75.2,75.2,0,0,0,28.2,61.877l6.647,6.647A65.566,65.566,0,0,1,81.348,49.293Z" transform="translate(13.764 19.471)" fill="none" stroke="#f8f8f4" stroke-miterlimit="10" stroke-width="1.103"/>
        <path id="패스_152" data-name="패스 152" d="M79.168,46.211a65.566,65.566,0,0,0-46.5,19.231l6.646,6.646a56.4,56.4,0,0,1,79.756,79.758l6.647,6.646a65.8,65.8,0,0,0-46.55-112.28Z" transform="translate(15.944 22.553)" fill="none" stroke="#f8f8f4" stroke-miterlimit="10" stroke-width="1.103"/>
        <path id="패스_153" data-name="패스 153" d="M76.989,61.923a47,47,0,0,1,33.258,80.192l6.646,6.647A56.4,56.4,0,0,0,37.136,69.006l6.647,6.646A46.837,46.837,0,0,1,76.989,61.923Z" transform="translate(18.124 25.635)" fill="none" stroke="#f8f8f4" stroke-miterlimit="10" stroke-width="1.103"/>
        <path id="패스_154" data-name="패스 154" d="M74.809,58.841A46.837,46.837,0,0,0,41.6,72.57l6.646,6.647a37.6,37.6,0,0,1,53.171,53.171l6.647,6.646A47,47,0,0,0,74.809,58.841Z" transform="translate(20.304 28.717)" fill="none" stroke="#f8f8f4" stroke-miterlimit="10" stroke-width="1.103"/>
        <path id="패스_155" data-name="패스 155" d="M72.629,74.554a28.2,28.2,0,0,1,19.964,48.1l6.647,6.647A37.6,37.6,0,0,0,46.069,76.134l6.647,6.647A28.1,28.1,0,0,1,72.629,74.554Z" transform="translate(22.484 31.799)" fill="none" stroke="#f8f8f4" stroke-miterlimit="10" stroke-width="1.103"/>
        <path id="패스_156" data-name="패스 156" d="M70.449,71.472A28.1,28.1,0,0,0,50.536,79.7l6.647,6.647A18.8,18.8,0,0,1,83.767,112.93l6.646,6.646a28.2,28.2,0,0,0-19.964-48.1Z" transform="translate(24.664 34.881)" fill="none" stroke="#f8f8f4" stroke-miterlimit="10" stroke-width="1.103"/>
        <path id="패스_157" data-name="패스 157" d="M68.269,87.184A9.4,9.4,0,0,1,74.94,103.2l6.647,6.646A18.8,18.8,0,0,0,55,83.264l6.646,6.646A9.368,9.368,0,0,1,68.269,87.184Z" transform="translate(26.844 37.963)" fill="none" stroke="#f8f8f4" stroke-miterlimit="10" stroke-width="1.103"/>
        <path id="패스_158" data-name="패스 158" d="M66.089,84.1a9.368,9.368,0,0,0-6.62,2.726L72.76,100.119A9.4,9.4,0,0,0,66.089,84.1Z" transform="translate(29.023 41.045)" fill="none" stroke="#f8f8f4" stroke-miterlimit="10" stroke-width="1.103"/>
      </g>
      <rect id="guide_box" data-name="guide box" width="229.657" height="229.657" fill="none"/>
    </g>
  </g>
</svg>
