<svg xmlns="http://www.w3.org/2000/svg" width="40" height="40" viewBox="0 0 40 40">
  <g id="Instagram" transform="translate(-5 -6)">
    <rect id="base" width="40" height="40" transform="translate(5 6)" fill="none"/>
    <g id="그룹_143" data-name="그룹 143" transform="translate(-0.125 -0.125)">
      <path id="Vector" d="M20.362,33.326h-9.4C3.133,33.326,0,29.993,0,21.662v-10C0,3.333,3.133,0,10.964,0h9.4c7.831,0,10.964,3.333,10.964,11.664v10C31.326,29.993,28.193,33.326,20.362,33.326Z" transform="translate(9.125 9.125)" fill="none" stroke="#fff" stroke-linecap="round" stroke-linejoin="round" stroke-width="1.5"/>
      <g id="타원_6" data-name="타원 6" transform="translate(17.5 18.015)" fill="none" stroke="#fff" stroke-width="1.5">
        <ellipse cx="7.5" cy="8" rx="7.5" ry="8" stroke="none"/>
        <ellipse cx="7.5" cy="8" rx="6.75" ry="7.25" fill="none"/>
      </g>
      <g id="타원_7" data-name="타원 7" transform="translate(31.5 14.603)" fill="none" stroke="#fff" stroke-width="1">
        <circle cx="1.5" cy="1.5" r="1.5" stroke="none"/>
        <circle cx="1.5" cy="1.5" r="1" fill="none"/>
      </g>
    </g>
  </g>
</svg>
