<svg xmlns="http://www.w3.org/2000/svg" width="1000" height="" viewBox="0 0 1526.936 137.804">
<path d="M-712.426-132.352l-6.016-2.068L-766.194-1.128l6.016,2.256,20.68-57.9h35.72v-6.2h-33.464Zm9.212,18.236-6.016,2.256L-669.186,1.128l6.016-2.256Zm68.244-19.176L-660.162-.188-654.146.94l23.688-124.08,40.232,86.48,5.452-3.2-43.8-93.436ZM-518.974,0-548.3-133.292h-6.2L-584.4-61.476l5.64,2.444,26.508-63.544,27.26,123.7Zm71.064,2.256c34.592,0,62.6-27.448,62.6-69.372,0-41.548-28.012-68.432-62.6-68.432a56.662,56.662,0,0,0-30.644,9.212l3.572,4.888a49.632,49.632,0,0,1,27.072-7.9c31.208,0,55.836,24.628,55.836,62.6,0,38.164-24.628,62.792-55.836,62.792s-55.836-24.628-55.836-62.792c0-17.86,6.58-34.028,17.108-45.308l-4.136-4.7c-12.6,12.22-19.74,30.08-19.74,50.384C-510.514-24.816-482.5,2.256-447.91,2.256ZM-340.186-59.22c24.628,0,40.42-14.476,40.42-37.036s-15.792-37.036-40.42-37.036h-4.888v6.2h4.888c20.492,0,33.652,12.032,33.652,30.832s-13.16,30.832-33.652,30.832h-18.8v-67.868h-6.392V0h6.392V-59.22Zm-7.144,12.6L-304.278.94l4.324-4.324-42.864-47.188ZM-273.446-6.2v-60.16h52.076v-6.2h-52.076v-60.724h-6.392V0h63.356V-6.2Zm56.024-127.088h-42.112v6.2h42.112ZM-58-99.828h7.332c-10.152-24.064-30.08-35.72-54.9-35.72a56.662,56.662,0,0,0-30.644,9.212l3.572,4.888a51.261,51.261,0,0,1,27.072-7.9C-84.13-129.344-67.962-119.756-58-99.828ZM-105.75,2.256c24.816,0,45.308-11.844,55.46-35.908h-7.52c-9.4,20.3-26.508,29.7-47.94,29.7-31.772,0-55.648-26.884-55.648-62.792,0-17.86,6.58-34.028,17.108-45.308l-4.136-4.7c-12.6,12.22-19.74,29.892-19.74,50.384C-168.166-27.072-141.47,2.256-105.75,2.256Zm126.336,0c34.592,0,62.6-27.448,62.6-69.372,0-41.548-28.012-68.432-62.6-68.432a56.662,56.662,0,0,0-30.644,9.212l3.572,4.888a49.632,49.632,0,0,1,27.072-7.9c31.208,0,55.836,24.628,55.836,62.6,0,38.164-24.628,62.792-55.836,62.792S-35.25-28.576-35.25-66.74c0-17.86,6.58-34.028,17.108-45.308l-4.136-4.7c-12.6,12.22-19.74,30.08-19.74,50.384C-42.018-24.816-14.006,2.256,20.586,2.256Zm114.492,0c18.236,0,30.832-10.9,33.088-29.892h-6.58c-1.88,14.1-11.28,23.688-26.508,23.688-16.356,0-26.884-11.28-26.884-28.764v-100.58H101.8v100.58C101.8-11.468,114.962,2.256,135.078,2.256ZM161.962-41.36h6.392v-91.932h-6.392Zm122.2-91.932V-11.844l-81.78-123.328-5.264,3.572L284.162,0h6.392V-133.292ZM196.554,0h6.392V-106.22h-6.392ZM374.966-101.708h6.392c0-20.492-12.972-33.84-32.9-33.84-7.9,0-14.1,2.256-19.176,6.2l3.948,4.888a24.987,24.987,0,0,1,15.228-4.888C364.25-129.344,374.59-118.44,374.966-101.708Zm5.64,90.052a39.133,39.133,0,0,0,8.836-25.192c0-15.228-7.9-28.576-28.2-36.1L340.75-80.652c-12.6-4.7-18.424-12.972-18.424-23.312a24.52,24.52,0,0,1,3.384-12.784l-4.324-5.076a28.881,28.881,0,0,0-5.64,17.86c0,12.972,6.956,23.5,22.56,29.328l21.244,8.084c16.732,6.392,23.312,17.3,23.312,29.7q0,12.126-6.768,20.3ZM348.646,2.256c9.024,0,17.672-2.444,24.252-7.144l-3.76-5.076a35.574,35.574,0,0,1-20.492,6.016c-20.68,0-34.028-13.536-34.028-34.592h-6.392C308.226-13.724,324.018,2.256,348.646,2.256ZM414.07-6.2v-60.16h52.076v-6.2H414.07v-60.724h-6.392V0h63.356V-6.2Zm56.024-127.088H427.982v6.2h42.112ZM492.466,0h6.392V-133.292h-6.392Zm20.3,0h36.1V-6.2h-36.1ZM612.6,2.256c34.592,0,62.6-27.448,62.6-69.372,0-41.548-28.012-68.432-62.6-68.432a56.662,56.662,0,0,0-30.644,9.212l3.572,4.888a49.632,49.632,0,0,1,27.072-7.9c31.208,0,55.836,24.628,55.836,62.6,0,38.164-24.628,62.792-55.836,62.792S556.762-28.576,556.762-66.74c0-17.86,6.58-34.028,17.108-45.308l-4.136-4.7c-12.6,12.22-19.74,30.08-19.74,50.384C549.994-24.816,578.006,2.256,612.6,2.256ZM720.322-59.22c24.628,0,40.42-14.476,40.42-37.036s-15.792-37.036-40.42-37.036h-4.888v6.2h4.888c20.492,0,33.652,12.032,33.652,30.832s-13.16,30.832-33.652,30.832h-18.8v-67.868H695.13V0h6.392V-59.22Zm-7.144,12.6L756.23.94l4.324-4.324L717.69-50.572Z" transform="translate(766.194 135.548)" fill="#eee"/></svg>