<svg id="logo" xmlns="http://www.w3.org/2000/svg" xmlns:xlink="http://www.w3.org/1999/xlink" width="332" height="48" viewBox="0 0 332 48">
  <defs>
    <clipPath id="clip-path">
      <rect id="사각형_272" data-name="사각형 272" width="331.944" height="48" fill="none"/>
    </clipPath>
  </defs>
  <rect id="base" width="332" height="48" fill="none"/>
  <g id="logo-2" data-name="logo">
    <path id="패스_1753" data-name="패스 1753" d="M433.214,84.033l-3.576,9.94h3.576v1.689h-4.167l-3.013,8.363-1.605-.62L431.58,83.47Zm7.434,19.4-1.605.648-5.491-15.544,1.605-.647Z" transform="translate(-351.064 -69.042)" fill="#fff"/>
    <path id="패스_1754" data-name="패스 1754" d="M540.473,85.261l6.392,13.826-1.521.788-5.491-11.883-3.322,17.458-1.69-.338,3.773-19.852Zm14.614,20.218L551.314,88.1l-2.59,6.307-1.577-.648,3.491-8.5h1.831l4.308,19.88Z" transform="translate(-442.391 -70.523)" fill="#fff"/>
    <g id="그룹_2644" data-name="그룹 2644">
      <g id="그룹_2643" data-name="그룹 2643" clip-path="url(#clip-path)">
        <path id="패스_1755" data-name="패스 1755" d="M676.378,93.894a11.574,11.574,0,0,1,2.338-7.208l1.183,1.3a9.086,9.086,0,0,0-1.774,5.632c0,4.928,3.267,8.644,7.631,8.644s7.631-3.717,7.631-8.644S690.119,85,685.755,85a6.956,6.956,0,0,0-2.956.62l-.845-1.492a8.9,8.9,0,0,1,3.8-.817c5.35,0,9.377,4.308,9.377,10.024,0,6.054-4.027,10.616-9.377,10.616s-9.377-4.308-9.377-10.052" transform="translate(-559.463 -68.907)" fill="#fff"/>
        <path id="패스_1756" data-name="패스 1756" d="M815.349,96.693h-2.281v8.532h-1.746V85.261h1.746v9.771h2.309c2.731,0,4.478-1.6,4.478-4.055s-1.747-4.027-4.478-4.027h-.056V85.261h.056c3.773,0,6.223,2.253,6.223,5.716s-2.45,5.716-6.251,5.716m6.758,7.49-1.211,1.183-5.012-5.519,1.3-1.1Z" transform="translate(-671.081 -70.523)" fill="#fff"/>
        <path id="패스_1757" data-name="패스 1757" d="M909.964,103.536v1.69H900.08V85.261h1.747V93.99h7.405V95.68h-7.405v7.856Zm-.141-16.585H904.3v-1.69h5.519Z" transform="translate(-744.497 -70.523)" fill="#fff"/>
        <path id="패스_1758" data-name="패스 1758" d="M1015.2,93.894a11.572,11.572,0,0,1,2.337-7.208l1.183,1.3a9.083,9.083,0,0,0-1.775,5.632c0,4.928,3.267,8.645,7.631,8.645a6.917,6.917,0,0,0,6.251-3.689h1.943a8.786,8.786,0,0,1-8.194,5.378c-5.35,0-9.377-4.308-9.377-10.052m9.377-8.9a6.953,6.953,0,0,0-2.956.619l-.846-1.492a8.908,8.908,0,0,1,3.8-.817,8.542,8.542,0,0,1,8.137,5.378h-1.942a6.77,6.77,0,0,0-6.2-3.689" transform="translate(-839.715 -68.907)" fill="#fff"/>
        <path id="패스_1759" data-name="패스 1759" d="M1135.748,93.894a11.579,11.579,0,0,1,2.336-7.208l1.184,1.3a9.077,9.077,0,0,0-1.775,5.632c0,4.928,3.266,8.644,7.631,8.644s7.63-3.717,7.63-8.644S1149.49,85,1145.125,85a6.956,6.956,0,0,0-2.957.62l-.844-1.492a8.9,8.9,0,0,1,3.8-.817c5.35,0,9.377,4.308,9.377,10.024,0,6.054-4.026,10.616-9.377,10.616s-9.377-4.308-9.377-10.052" transform="translate(-939.428 -68.907)" fill="#fff"/>
        <path id="패스_1760" data-name="패스 1760" d="M1267.011,99.875V85.261h1.746V99.875c0,2.421,1.437,3.97,3.661,3.97a3.415,3.415,0,0,0,3.521-2.759h1.773a5.014,5.014,0,0,1-5.293,4.449c-3.3,0-5.407-2.224-5.407-5.66m9.04-14.614h1.747V96.806h-1.747Z" transform="translate(-1048.003 -70.523)" fill="#fff"/>
        <path id="패스_1761" data-name="패스 1761" d="M1377.417,83.914v19.964h-1.858L1362.8,84.589l1.436-.957,11.433,17.317V83.914Zm-14.474,7.546h1.747v12.418h-1.747Z" transform="translate(-1127.235 -69.176)" fill="#fff"/>
        <path id="패스_1762" data-name="패스 1762" d="M1472.932,97.837h1.746c0,2.675,1.831,4.421,4.646,4.421a4.98,4.98,0,0,0,2.365-.507l.929,1.464a6.626,6.626,0,0,1-3.294.732c-3.885,0-6.392-2.393-6.392-6.11m10.56,2.224a4.349,4.349,0,0,0,.563-2.281c0-1.886-1.408-3.491-3.915-4.139l-1.857-.479c-2.844-.732-4.112-2.591-4.112-4.787a4.926,4.926,0,0,1,.563-2.393l1.408,1.154a3.737,3.737,0,0,0-.225,1.239c0,1.436.845,2.591,3.012,3.154l1.747.45c3.408.873,5.124,3.1,5.124,5.8a6.046,6.046,0,0,1-.985,3.492Zm-4-15.065a3.981,3.981,0,0,0-1.661.338l-.873-1.464a5.194,5.194,0,0,1,2.534-.563,4.827,4.827,0,0,1,5.21,5.068h-1.718A3.223,3.223,0,0,0,1479.492,85" transform="translate(-1218.329 -68.907)" fill="#fff"/>
        <path id="패스_1763" data-name="패스 1763" d="M1584.305,103.536v1.69h-9.884V85.261h1.747V93.99h7.4V95.68h-7.4v7.856Zm-.141-16.585h-5.52v-1.69h5.52Z" transform="translate(-1302.275 -70.523)" fill="#fff"/>
        <path id="패스_1764" data-name="패스 1764" d="M1664.8,85.261h1.746v19.964H1664.8Zm4.393,18.275h4.447v1.69h-4.447Z" transform="translate(-1377.032 -70.523)" fill="#fff"/>
        <path id="패스_1765" data-name="패스 1765" d="M1726.131,93.894a11.573,11.573,0,0,1,2.336-7.208l1.181,1.3a9.094,9.094,0,0,0-1.774,5.632c0,4.928,3.268,8.644,7.631,8.644s7.631-3.717,7.631-8.644S1739.871,85,1735.506,85a6.966,6.966,0,0,0-2.957.62l-.844-1.492a8.906,8.906,0,0,1,3.8-.817c5.351,0,9.379,4.308,9.379,10.024,0,6.054-4.027,10.616-9.379,10.616s-9.375-4.308-9.375-10.052" transform="translate(-1427.761 -68.907)" fill="#fff"/>
        <path id="패스_1766" data-name="패스 1766" d="M1862,96.693h-2.28v8.532h-1.746V85.261h1.746v9.771h2.308c2.732,0,4.479-1.6,4.479-4.055s-1.747-4.027-4.479-4.027h-.056V85.261h.056c3.774,0,6.223,2.253,6.223,5.716s-2.449,5.716-6.251,5.716m6.759,7.49-1.213,1.183-5.012-5.519,1.3-1.1Z" transform="translate(-1536.813 -70.523)" fill="#fff"/>
        <path id="패스_1767" data-name="패스 1767" d="M32.512,39.253l-2.18-1.391c.952-1.491,1.466-4.723,1.466-7.006V21.845c0-9.467-5.693-19.26-15.221-19.26A14.153,14.153,0,0,0,2.585,16.525a13.729,13.729,0,0,0,3.66,9.35l-1.9,1.756A16.31,16.31,0,0,1,0,16.525,16.774,16.774,0,0,1,16.577,0C27.724,0,34.384,11.106,34.384,21.845v9.011c0,2.632-.586,6.382-1.872,8.4" transform="translate(0.001 0.001)" fill="#fff"/>
        <path id="패스_1768" data-name="패스 1768" d="M49.368,161.343c-7.332,0-13.3-5.462-13.3-12.174A12.4,12.4,0,0,1,48.4,137.029v2.586a9.778,9.778,0,0,0-9.74,9.554c0,5.287,4.8,9.589,10.711,9.589a9.657,9.657,0,0,0,3.752-.752l1.108,2.336a12.1,12.1,0,0,1-4.86,1" transform="translate(-29.836 -113.343)" fill="#fff"/>
        <path id="패스_1769" data-name="패스 1769" d="M202.938,27.631l-1.9-1.756a13.729,13.729,0,0,0,3.66-9.35,14.153,14.153,0,0,0-13.992-13.94,12.74,12.74,0,0,0-7.1,2.1L182.218,2.5A15.422,15.422,0,0,1,190.707,0a16.774,16.774,0,0,1,16.578,16.526,16.307,16.307,0,0,1-4.348,11.106" transform="translate(-150.721 0)" fill="#fff"/>
        <path id="패스_1770" data-name="패스 1770" d="M143.79,102.691a13.457,13.457,0,0,1-10.667-5.21,18.571,18.571,0,0,1-3.856-11.6V76.895c0-3.5.283-7.224,2.333-10.775l2.239,1.293c-1.746,3.023-1.986,6.343-1.986,9.481v8.986c0,6.9,4.184,14.225,11.937,14.225a10.984,10.984,0,0,0,10.9-10.488l2.584.091a13.592,13.592,0,0,1-13.486,12.982" transform="translate(-106.923 -54.691)" fill="#fff"/>
      </g>
    </g>
  </g>
</svg>
