<svg xmlns="http://www.w3.org/2000/svg" width="40" height="40" viewBox="0 0 40 40"><g transform="translate(4 4)"><rect width="40" height="40" transform="translate(-4 -4)" fill="none"/><path d="M0,25.863a.748.748,0,0,1-.53-.22.75.75,0,0,1,0-1.061L24.583-.53a.75.75,0,0,1,1.061,0,.75.75,0,0,1,0,1.061L.53,25.643A.748.748,0,0,1,0,25.863Z" transform="translate(3.443 3.443)" fill="#fff"/><path d="M25.113,25.863a.748.748,0,0,1-.53-.22L-.53.53A.75.75,0,0,1-.53-.53.75.75,0,0,1,.53-.53L25.643,24.583a.75.75,0,0,1-.53,1.28Z" transform="translate(3.443 3.443)" fill="#fff"/></g></svg>