<svg width="304" height="23" viewBox="0 0 304 23" fill="none" xmlns="http://www.w3.org/2000/svg">
<path d="M182 1H187.041L193.96 17.6185H194.04L201.093 1H206L196.561 22H191.171L182 1Z" fill="#43564A"/>
<path d="M217.726 13.6519L213.5 4.62963H213.39L209.11 13.6519L207.765 16.4519L205.104 22H200L210.838 1H216.107L227 22H221.704L219.043 16.4519L217.726 13.6519Z" fill="#43564A"/>
<path d="M246 1H251V22H246V1Z" fill="#43564A"/>
<path d="M100 1H105V22H100V1Z" fill="#43564A"/>
<path d="M265.987 0C270.07 0 273.257 1.13915 275.549 3.39033C277.841 5.66863 279 8.35377 279 11.5C279 14.6462 277.841 17.3314 275.549 19.6097C273.257 21.888 270.07 23 265.987 23C261.904 23 258.743 21.8608 256.451 19.6097C254.133 17.3314 253 14.6462 253 11.5C253 8.35377 254.159 5.66863 256.451 3.39033C258.769 1.11203 261.93 0 265.987 0ZM265.987 3.14623C263.063 3.14623 260.982 4.01415 259.665 5.75C258.374 7.48585 257.715 9.41156 257.715 11.5271C257.715 13.6427 258.374 15.5684 259.665 17.3042C260.955 19.0401 263.063 19.908 265.987 19.908C268.911 19.908 270.992 19.0401 272.309 17.3042C273.6 15.5684 274.258 13.6427 274.258 11.5271C274.258 9.41156 273.6 7.48585 272.309 5.75C271.018 4.01415 268.911 3.14623 265.987 3.14623Z" fill="#43564A"/>
<path d="M169.987 0C174.07 0 177.257 1.13915 179.549 3.39033C181.841 5.66863 183 8.35377 183 11.5C183 14.6462 181.841 17.3314 179.549 19.6097C177.257 21.888 174.07 23 169.987 23C165.904 23 162.743 21.8608 160.451 19.6097C158.133 17.3314 157 14.6462 157 11.5C157 8.35377 158.159 5.66863 160.451 3.39033C162.769 1.11203 165.93 0 169.987 0ZM169.987 3.14623C167.063 3.14623 164.982 4.01415 163.665 5.75C162.374 7.48585 161.715 9.41156 161.715 11.5271C161.715 13.6427 162.374 15.5684 163.665 17.3042C164.955 19.0401 167.063 19.908 169.987 19.908C172.911 19.908 174.992 19.0401 176.309 17.3042C177.6 15.5684 178.258 13.6427 178.258 11.5271C178.258 9.41156 177.6 7.48585 176.309 5.75C175.018 4.01415 172.911 3.14623 169.987 3.14623Z" fill="#43564A"/>
<path d="M281 1H286.234L299.18 16.4519H299.262V1H304V22H298.766L285.848 6.57407H285.738V22H281V1Z" fill="#43564A"/>
<path d="M132 1H137.234L150.18 16.4519H150.262V1H155V22H149.766L136.848 6.57407H136.738V22H132V1Z" fill="#43564A"/>
<path d="M107 1H112.234L125.18 16.4519H125.262V1H130V22H124.766L111.848 6.57407H111.738V22H107V1Z" fill="#43564A"/>
<path d="M243.095 1H220C220 2.09023 220.373 3.05068 221.144 3.82942C221.916 4.60816 222.874 4.97157 223.991 4.97157H229.579V22H234.368V4.99753H239.982C241.073 4.99753 242.004 4.60816 242.803 3.85538C243.601 3.07664 244 2.14215 244 1.02596H243.095V1Z" fill="#43564A"/>
<path d="M0 23V9.2H18.7361C19.2905 9.2 19.7894 8.97284 20.2051 8.54691C20.6208 8.09259 20.8149 7.55309 20.8149 6.9V4.6H4.15743C2.99335 4.6 1.99557 4.14568 1.1918 3.26543C0.388027 2.35679 0 1.27778 0 0H25V9.2C25 10.5062 24.5843 11.5852 23.7528 12.4654C22.9213 13.3457 21.9512 13.8 20.8149 13.8H16.6574L25 23H18.7361L10.3936 13.8H4.15743V23H0Z" fill="#43564A"/>
<path d="M34.2084 18.4114C33.6264 18.4114 33.1275 18.1834 32.7118 17.6989C32.3237 17.2429 32.1297 16.6729 32.1297 16.0459V14.1933C32.1297 14.1933 32.1851 14.1933 32.2129 14.1933H48.6486C49.8126 14.1933 50.8104 13.7373 51.6419 12.8253C52.4734 11.9133 52.9168 10.8017 52.9168 9.46221H32.1574V7.06815C32.1574 6.44114 32.3514 5.87113 32.7395 5.41512C33.1552 4.95911 33.6541 4.7311 34.2361 4.7311H35.7328C35.7328 4.7311 35.7328 4.7311 35.7605 4.7311H48.7317C49.8958 4.7311 50.8936 4.27509 51.7251 3.36307C52.5565 2.45105 53 1.33953 53 0H32.1574C30.9933 0 30.0233 0.45601 29.1918 1.39653C28.388 2.30855 28 3.42007 28 4.7026V18.3544C28 19.6654 28.388 20.777 29.1918 21.689C29.8293 22.4015 30.5776 22.829 31.4368 22.9715C31.52 22.9715 31.5754 22.9715 31.6585 23C31.6863 23 31.714 23 31.7694 23C31.908 23 32.0188 23 32.1574 23H48.8149C49.9512 23 50.9213 22.544 51.7528 21.632C52.5843 20.72 53 19.6084 53 18.2974H34.2639L34.2084 18.4114Z" fill="#43564A"/>
<rect x="68" y="10" width="15" height="3" fill="#43564A"/>
<rect x="74" y="4" width="3" height="15" fill="#43564A"/>
</svg>
