<svg width="499" height="60" viewBox="0 0 499 60" fill="none" xmlns="http://www.w3.org/2000/svg">
<g clip-path="url(#clip0_221_639)">
<path d="M424.461 2.21851H411.861V58.7786H424.461V2.21851Z" fill="#43564A"/>
<path d="M489.324 8.75158C483.24 2.91776 474.79 0 463.969 0C453.215 0 444.779 2.91776 438.664 8.75158C432.545 14.5888 429.488 21.5453 429.488 29.6263C429.488 37.7073 432.545 44.6664 438.664 50.5002C444.779 56.3383 453.215 59.2552 463.969 59.2552C474.79 59.2552 483.24 56.3383 489.324 50.5002C495.405 44.6664 498.447 37.7073 498.447 29.6263C498.447 21.5453 495.405 14.5896 489.324 8.75158ZM480.703 44.48C477.276 48.9447 471.697 51.175 463.969 51.175C456.237 51.175 450.662 48.9447 447.232 44.48C443.804 40.0186 442.091 35.0679 442.091 29.6272C442.091 24.189 443.804 19.2375 447.232 14.7735C450.661 10.3121 456.237 8.08182 463.969 8.08182C471.697 8.08182 477.276 10.3121 480.703 14.7735C484.133 19.2375 485.847 24.189 485.847 29.6272C485.847 35.0671 484.133 40.0186 480.703 44.48Z" fill="#43564A"/>
<path d="M3.03501 11.504C5.05694 13.6828 7.54703 14.7693 10.5011 14.7693H52.5086V20.4217C52.5086 22.0135 51.9873 23.3716 50.9507 24.4901C49.9106 25.5445 48.679 26.0751 47.2569 26.0751H0V60H10.5011V37.3884H26.2539L47.2577 60H63.0114L42.0076 37.3884H52.5095C55.353 37.3884 57.8161 36.2952 59.8946 34.1164C61.9713 31.9376 63.0105 29.2594 63.0105 26.0759V3.4635H0C0 6.5837 1.01307 9.2619 3.03501 11.504Z" fill="#43564A"/>
<path d="M191.842 14.7701C194.796 14.7701 197.286 13.6837 199.308 11.5048C201.331 9.26275 202.343 6.58456 202.343 3.46436H139.332V37.3893H149.834H160.335H176.088H191.841V48.6959L191.841 48.6951H149.833C146.879 48.6951 144.389 49.7815 142.367 51.9603C140.345 54.2024 139.332 56.8806 139.332 60.0008H191.842H202.343V26.0759H155.086C153.663 26.0759 152.431 25.5453 151.391 24.4909C150.354 23.3724 149.834 22.0143 149.834 20.4226V14.7701H191.842Z" fill="#43564A"/>
<path d="M210.25 3.43909H207.879C207.879 6.40324 208.889 8.94056 210.915 11.0662C212.938 13.132 215.428 14.1671 218.38 14.1671H233.033V60H245.636V14.1671H260.389C263.232 14.1671 265.694 13.132 267.772 11.0662C269.849 9.0013 270.891 6.45807 270.891 3.43909H268.52H210.25Z" fill="#43564A"/>
<path d="M81.8625 16.5576C82.9008 15.418 84.1594 14.8478 85.6364 14.8478H89.4086C89.4399 14.8478 89.4567 14.8562 89.4896 14.8562H122.171C125.075 14.8562 127.587 13.7411 129.711 11.5175C131.83 9.29317 132.894 6.55677 132.894 3.30835H120.925H80.5094H80.3854C77.4846 3.30835 74.997 4.45048 72.9186 6.73391C70.8949 8.95491 69.8835 11.6593 69.8835 14.8469V48.3088C69.8835 51.4939 70.8949 54.2253 72.9186 56.5121C74.5153 58.2624 76.4065 59.3143 78.5828 59.6863C78.7633 59.7192 78.9472 59.747 79.132 59.7681C79.2188 59.779 79.3066 59.79 79.3943 59.7984C79.7191 59.828 80.0489 59.8448 80.3846 59.8448H120.925H122.391C125.235 59.8448 127.696 58.7322 129.775 56.5121C131.854 54.2885 132.893 51.5538 132.893 48.3088H101.388H85.6347C84.1577 48.3088 82.8991 47.7377 81.8608 46.5956C80.8764 45.4534 80.3838 44.1046 80.3838 42.5391V38.0203C80.4647 38.0228 80.539 38.0448 80.6208 38.0448H122.016C124.919 38.0448 127.432 36.9305 129.555 34.7061C131.676 32.4825 132.739 29.7453 132.739 26.4969H80.3854V20.6133C80.3854 19.0511 80.8781 17.6989 81.8625 16.5576Z" fill="#43564A"/>
<path d="M327.889 37.3817V43.0342C327.889 44.6259 327.368 45.984 326.331 47.1025C325.315 48.1333 324.113 48.6546 322.731 48.6782H291.039C289.658 48.6546 288.455 48.1333 287.439 47.1025C286.402 45.984 285.881 44.6259 285.881 43.0342V37.3817V3.43994H275.379V48.6875C275.379 51.8718 276.419 54.5492 278.495 56.728C280.574 58.9068 283.037 60 285.88 60H296.381H317.387H325H327.888C330.731 60 333.194 58.9068 335.273 56.728C337.35 54.5492 338.389 51.8718 338.389 48.6875V3.43994H327.887V37.3817H327.889Z" fill="#43564A"/>
<path d="M345.707 3.43994H343.337C343.337 6.40409 344.347 8.94142 346.373 11.0671C348.396 13.1329 350.886 14.1679 353.838 14.1679H395.704V37.3817V43.0342C395.704 44.6259 395.183 45.984 394.146 47.1025C393.13 48.1333 391.928 48.6546 390.546 48.6782H355.937V24.372H343.336V60H349.117H355.937H385.202H392.815H395.703C398.547 60 401.01 58.9068 403.088 56.728C405.165 54.5492 406.204 51.8718 406.204 48.6875V14.1679V3.43994H395.702H345.707Z" fill="#43564A"/>
</g>
<defs>
<clipPath id="clip0_221_639">
<rect width="498.447" height="60" fill="white"/>
</clipPath>
</defs>
</svg>
