<svg width="200" height="26" viewBox="0 0 200 26" fill="none" xmlns="http://www.w3.org/2000/svg">
<g clip-path="url(#clip0_1_5974)">
<path d="M60.2446 0.582546H65.9939L73.8838 20.2358H73.9755L82.0183 0.582546H87.6147L76.8501 25.4175H70.7033L60.2446 0.582546Z" fill="#E1D8CF"/>
<path d="M101.04 15.5448L96.3303 4.875H96.208L91.4373 15.5448L89.9389 18.8561L86.9725 25.4175H81.2844L93.3639 0.582546H99.2355L111.376 25.4175H105.474L102.508 18.8561L101.04 15.5448Z" fill="#E1D8CF"/>
<path d="M133.578 0.582546H139.082V25.4175H133.578V0.582546Z" fill="#E1D8CF"/>
<path d="M156.636 0C161.376 0 165.076 1.28774 167.737 3.83255C170.397 6.40802 171.743 9.4434 171.743 13C171.743 16.5566 170.397 19.592 167.737 22.1675C165.076 24.7429 161.376 26 156.636 26C151.896 26 148.226 24.7123 145.566 22.1675C142.875 19.592 141.56 16.5566 141.56 13C141.56 9.4434 142.905 6.40802 145.566 3.83255C148.257 1.25708 151.927 0 156.636 0ZM156.636 3.5566C153.242 3.5566 150.826 4.53774 149.297 6.5C147.798 8.46226 147.034 10.6392 147.034 13.0307C147.034 15.4222 147.798 17.5991 149.297 19.5613C150.795 21.5236 153.242 22.5047 156.636 22.5047C160.031 22.5047 162.446 21.5236 163.975 19.5613C165.474 17.5991 166.238 15.4222 166.238 13.0307C166.238 10.6392 165.474 8.46226 163.975 6.5C162.477 4.53774 160.031 3.5566 156.636 3.5566Z" fill="#E1D8CF"/>
<path d="M174.434 0.582546H180.245L194.618 18.8561H194.71V0.582546H199.969V25.4175H194.159L179.817 7.17453H179.694V25.4175H174.434V0.582546Z" fill="#E1D8CF"/>
<path d="M0 25.4175V10.5165H20.6728C21.2844 10.5165 21.8349 10.2712 22.2936 9.81132C22.7523 9.32075 22.9664 8.73821 22.9664 8.03302V5.54953H4.58716C3.30275 5.54953 2.20183 5.05896 1.31498 4.10849C0.428135 3.12736 0 1.96226 0 0.582546H27.5841V10.5165C27.5841 11.9269 27.1254 13.092 26.208 14.0425C25.2905 14.9929 24.2202 15.4835 22.9664 15.4835H18.3792L27.5841 25.4175H20.6728L11.4679 15.4835H4.58716V25.4175H0Z" fill="#E1D8CF"/>
<path d="M130.795 0.582546H104.251C104.251 1.87028 104.679 3.00472 105.566 3.92453C106.453 4.84434 107.553 5.27358 108.838 5.27358H115.26V25.3868H120.764V5.30424H127.217C128.471 5.30424 129.541 4.84434 130.459 3.95519C131.376 3.03538 131.835 1.9316 131.835 0.613207H130.795V0.582546Z" fill="#E1D8CF"/>
<path d="M37.4922 20.2972C36.85 20.2972 36.2996 20.0519 35.8409 19.5307C35.4127 19.0401 35.1987 18.4269 35.1987 17.7524V15.7594C35.1987 15.7594 35.2598 15.7594 35.2904 15.7594H53.425C54.7094 15.7594 55.8103 15.2689 56.7277 14.2877C57.6451 13.3066 58.1344 12.1108 58.1344 10.6698H35.2292V8.09434C35.2292 7.41981 35.4433 6.8066 35.8714 6.31604C36.3302 5.82547 36.8806 5.58019 37.5228 5.58019H39.1742C39.1742 5.58019 39.1742 5.58019 39.2048 5.58019H53.5167C54.8011 5.58019 55.902 5.08962 56.8195 4.10849C57.7369 3.12736 58.2262 1.9316 58.2262 0.490566H35.2292C33.9448 0.490566 32.8745 0.981132 31.9571 1.99292C31.0702 2.97406 30.6421 4.16981 30.6421 5.54953V20.2359C30.6421 21.6462 31.0702 22.842 31.9571 23.8231C32.6604 24.5896 33.4861 25.0495 34.4341 25.2028C34.5259 25.2028 34.587 25.2028 34.6788 25.2335C34.7094 25.2335 34.7399 25.2335 34.8011 25.2335C34.954 25.2335 35.0763 25.2335 35.2292 25.2335H53.6085C54.8623 25.2335 55.9326 24.7429 56.85 23.7618C57.7675 22.7807 58.2262 21.5849 58.2262 20.1745H37.5534L37.4922 20.2972Z" fill="#E1D8CF"/>
</g>
<defs>
<clipPath id="clip0_1_5974">
<rect width="200" height="26" fill="white"/>
</clipPath>
</defs>
</svg>
