<svg width="362" height="48" viewBox="0 0 362 48" fill="none" xmlns="http://www.w3.org/2000/svg">
<g clip-path="url(#clip0_3_7444)">
<path d="M109.043 1.07544H119.449L133.73 37.3585H133.896L148.453 1.07544H158.583L139.099 46.9245H127.973L109.043 1.07544Z" fill="#43564A"/>
<path d="M182.882 28.6981L174.358 8.99997H174.136L165.502 28.6981L162.789 34.8113L157.42 46.9245H147.125L168.989 1.07544H179.616L201.591 46.9245H190.908L185.539 34.8113L182.882 28.6981Z" fill="#43564A"/>
<path d="M241.776 1.07544H251.739V46.9245H241.776V1.07544Z" fill="#43564A"/>
<path d="M283.511 0C292.091 0 298.788 2.37736 303.604 7.07547C308.42 11.8302 310.855 17.434 310.855 24C310.855 30.566 308.42 36.1698 303.604 40.9245C298.788 45.6792 292.091 48 283.511 48C274.932 48 268.29 45.6226 263.474 40.9245C258.603 36.1698 256.223 30.566 256.223 24C256.223 17.434 258.658 11.8302 263.474 7.07547C268.345 2.32076 274.987 0 283.511 0ZM283.511 6.56604C277.367 6.56604 272.994 8.37736 270.227 12C267.515 15.6226 266.131 19.6415 266.131 24.0566C266.131 28.4717 267.515 32.4906 270.227 36.1132C272.939 39.7359 277.367 41.5472 283.511 41.5472C289.655 41.5472 294.028 39.7359 296.796 36.1132C299.508 32.4906 300.892 28.4717 300.892 24.0566C300.892 19.6415 299.508 15.6226 296.796 12C294.083 8.37736 289.655 6.56604 283.511 6.56604Z" fill="#43564A"/>
<path d="M315.726 1.07544H326.243L352.258 34.8113H352.424V1.07544H361.945V46.9245H351.428L325.468 13.2453H325.247V46.9245H315.726V1.07544Z" fill="#43564A"/>
<path d="M0 46.9246V19.4151H37.4177C38.5248 19.4151 39.5211 18.9623 40.3514 18.1132C41.1817 17.2076 41.5691 16.1321 41.5691 14.8302V10.2453H8.30275C5.97798 10.2453 3.98532 9.33965 2.38012 7.58494C0.774924 5.77361 0 3.62267 0 1.0755H49.9272V19.4151C49.9272 22.0189 49.0969 24.1698 47.4364 25.9246C45.7758 27.6793 43.8385 28.5849 41.5691 28.5849H33.2664L49.9272 46.9246H37.4177L20.7569 28.5849H8.30275V46.9246H0Z" fill="#43564A"/>
<path d="M236.739 1.07544H188.694C188.694 3.4528 189.469 5.54714 191.074 7.24525C192.679 8.94336 194.672 9.73582 196.997 9.73582H208.62V46.8679H218.584V9.79242H230.263C232.532 9.79242 234.47 8.94336 236.13 7.30185C237.791 5.60374 238.621 3.56601 238.621 1.13204H236.739V1.07544Z" fill="#43564A"/>
<path d="M67.8612 37.4717C66.6988 37.4717 65.7025 37.0188 64.8722 36.0566C64.0973 35.1509 63.7098 34.0188 63.7098 32.7736V29.0943C63.7098 29.0943 63.8205 29.0943 63.8759 29.0943H96.6994C99.0242 29.0943 101.017 28.1887 102.677 26.3773C104.338 24.566 105.224 22.3585 105.224 19.6981H63.7652V14.9434C63.7652 13.6981 64.1526 12.566 64.9275 11.6604C65.7578 10.7547 66.7541 10.3019 67.9165 10.3019H70.9055C70.9055 10.3019 70.9055 10.3019 70.9609 10.3019H96.8655C99.1902 10.3019 101.183 9.39621 102.843 7.58489C104.504 5.77356 105.39 3.56602 105.39 0.90564H63.7652C61.4404 0.90564 59.5031 1.8113 57.8425 3.67922C56.2373 5.49055 55.4624 7.69809 55.4624 10.2453V37.3585C55.4624 39.9622 56.2373 42.1698 57.8425 43.9811C59.1156 45.3962 60.6101 46.2453 62.326 46.5283C62.4921 46.5283 62.6028 46.5283 62.7688 46.5849C62.8242 46.5849 62.8795 46.5849 62.9902 46.5849C63.267 46.5849 63.4884 46.5849 63.7652 46.5849H97.0315C99.3009 46.5849 101.238 45.6792 102.899 43.8679C104.559 42.0566 105.39 39.849 105.39 37.2453H67.9719L67.8612 37.4717Z" fill="#43564A"/>
</g>
<defs>
<clipPath id="clip0_3_7444">
<rect width="362" height="48" fill="white"/>
</clipPath>
</defs>
</svg>
