<?xml version="1.0" encoding="UTF-8"?><svg xmlns="http://www.w3.org/2000/svg" viewBox="0 0 161.1 60"><defs><style>.cls-1{fill:none;stroke:#009fe8;stroke-miterlimit:10;stroke-width:10px;}.cls-2{fill:#dfd7cd;}</style></defs><g id="_레이어_2"><rect class="cls-1" x="-457.96" y="-463.71" width="2154.32" height="1174.2"/></g><g id="_레이어_1"><path class="cls-2" d="m66.22,42.14v3.08c-.15,0-.3.02-.46.02-5.1,0-10.19,0-15.29,0-.38,0-.51-.09-.5-.48.03-.78.02-1.57,0-2.35,0-.28.07-.4.36-.41.13,0,.26-.05.39-.07,1.21-.25,1.84-.86,2.06-2.06.11-.6.18-1.21.18-1.82.02-3.21.02-6.42,0-9.63,0-.53-.08-1.07-.22-1.59-.49-1.86-2.24-2.6-4.12-1.74-1.56.72-2.61,2.01-3.52,3.41-.1.16-.11.39-.11.59,0,3.15,0,6.3.03,9.45,0,.57.12,1.16.28,1.71.31,1.08,1.1,1.69,2.24,1.75.37.02.46.15.46.49-.02.88,0,1.77,0,2.69h-16.19v-3.12c.4-.04.83-.07,1.26-.14,1.62-.26,2.36-1.08,2.44-2.72.05-1.13.08-2.26.08-3.4,0-7.36,0-14.73,0-22.09,0-.74-.06-1.48-.14-2.21-.13-1.11-.8-1.73-1.88-1.93-.57-.11-1.14-.2-1.75-.3,0-.93,0-1.87.01-2.81,0-.09.15-.24.25-.27,1.61-.33,3.21-.68,4.83-.96,1.7-.3,3.42-.52,5.13-.8.79-.13,1.57-.32,2.35-.47.19-.04.39-.04.62-.07v20.03c.28-.24.53-.44.75-.67,1.29-1.27,2.74-2.31,4.46-2.9,2.86-.98,5.69-.91,8.4.54,2.28,1.21,3.47,3.16,3.71,5.69.12,1.2.17,2.4.19,3.61.03,2.47,0,4.94.01,7.41,0,.74.05,1.48.18,2.21.22,1.2.98,1.91,2.19,2.11.44.07.89.13,1.35.2Z"/><path class="cls-2" d="m145.23,42.59c-1.64,1.22-3.42,2.13-5.37,2.68-2.29.64-4.61.86-6.94.23-1.7-.46-3.08-1.36-3.87-2.99-.96-1.99-.43-4.77,1.25-6.34,1.81-1.7,3.9-3,6.19-3.94,2.59-1.06,5.23-2.01,7.85-3.02.15-.06.36-.22.36-.33,0-1.12.02-2.24-.11-3.35-.14-1.23-.89-1.97-2.14-2.26-1.31-.3-2.57-.16-3.83.22-1.03.31-1.5,1.08-1.68,2.08-.08.44-.16.89-.26,1.32-.33,1.32-1.13,2.14-2.49,2.43-.77.16-1.52.19-2.28-.02-2.16-.57-3.08-2.59-2.07-4.59.49-.96,1.22-1.69,2.1-2.28,2.02-1.36,4.27-2.02,6.67-2.39,2.38-.37,4.77-.28,7.14-.21,1.6.05,3.2.4,4.69,1.08,2.41,1.11,3.72,2.91,3.7,5.63-.03,3.92,0,7.84,0,11.76,0,.62,0,1.25.12,1.86.17.93.6,1.3,1.36,1.32.8.03,1.44-.43,1.65-1.27.09-.38.24-.49.62-.47.49.04.99.02,1.48.02.29,0,.38.11.34.4-.28,2.4-1.46,4.17-3.74,5.03-2.64.99-5.31.93-7.92-.15-1.11-.46-1.99-1.25-2.66-2.25-.05-.07-.1-.13-.16-.2Zm-.58-10.19c-1.75.77-3.57,1.28-5.01,2.5-.58.49-1.13,1.06-1.56,1.68-.7,1.03-.78,2.19-.19,3.3.61,1.13,1.63,1.64,2.93,1.61,1.55-.04,2.71-.85,3.75-1.89.1-.11.15-.31.15-.47,0-2.07,0-4.15,0-6.22,0-.15-.04-.3-.07-.5Z"/><path class="cls-2" d="m14.6,19.41c4.8.02,8.41,1.25,11.51,3.82,2,1.66,3.15,3.85,3.63,6.38.77,4.04.09,7.78-2.47,11.07-1.73,2.23-4.07,3.65-6.75,4.42-5.64,1.62-10.87.71-15.55-2.85-1.93-1.47-3.05-3.54-3.61-5.87-.88-3.66-.65-7.2,1.34-10.51,1.55-2.59,3.84-4.28,6.62-5.36,1.94-.76,3.95-1.19,5.28-1.1Zm5.5,12.54c-.01-1.95-.08-3.88-.48-5.8-.38-1.8-1.78-3.49-4.23-3.45-1.77.03-2.99.78-3.68,2.41-.53,1.25-.69,2.58-.77,3.91-.17,2.73-.11,5.45.19,8.17.13,1.23.38,2.44,1.05,3.51.85,1.36,2.1,1.96,3.67,1.91,1.65-.06,2.74-.93,3.33-2.44.18-.46.3-.94.41-1.42.51-2.24.56-4.51.52-6.8Z"/><path class="cls-2" d="m96.75,31.84c0,4.72-1.65,8.58-5.57,11.27-3.04,2.08-6.46,2.83-10.12,2.61-3.08-.19-5.9-1.12-8.46-2.83-2.65-1.77-4.14-4.31-4.77-7.37-.54-2.63-.43-5.24.56-7.76,1.37-3.49,3.92-5.84,7.36-7.26,2.6-1.07,5.3-1.35,8.08-1.08,2.82.27,5.39,1.2,7.71,2.77,3.44,2.31,4.99,5.66,5.21,9.65Zm-9.91.6c-.17-1.96-.24-3.87-.52-5.76-.36-2.4-1.9-4.11-4.65-3.97-1.5.08-2.65.74-3.25,2.1-.39.89-.68,1.87-.78,2.83-.37,3.49-.32,6.98.16,10.46.19,1.36.72,2.58,1.75,3.56,1.41,1.34,4.89,1.52,6.03-1.15.33-.78.64-1.61.74-2.44.24-1.88.36-3.78.52-5.64Z"/><path class="cls-2" d="m112.6,25.72c.6-.83,1.13-1.63,1.73-2.37,1.29-1.56,2.85-2.79,4.84-3.34,1.28-.36,2.6-.42,3.87.02,2.19.76,3.4,2.83,3.18,5.28-.14,1.61-.86,2.87-2.41,3.43-1.29.46-2.61.47-3.69-.63-.42-.43-.82-.87-1.23-1.3-.81-.84-1.78-1.11-2.91-.82-1,.26-1.54,1.01-1.94,1.87-.53,1.14-.81,2.37-.87,3.62-.11,2.04-.15,4.09-.2,6.14-.01.53.02,1.08.09,1.61.24,1.84,1.06,2.62,2.92,2.79.35.03.7.05,1.05.04.23,0,.32.05.32.28,0,.83,0,1.65,0,2.48,0,.3-.07.44-.41.44-5.64-.01-11.27-.01-16.91,0-.33,0-.42-.11-.41-.43.02-.8.03-1.6.01-2.4,0-.32.11-.4.4-.4.38,0,.76-.03,1.13-.09,1.41-.23,2.16-.96,2.29-2.39.1-1.08.11-2.17.12-3.26.02-2.13.03-4.27,0-6.4,0-.75-.06-1.51-.22-2.24-.25-1.18-1.07-1.82-2.25-2-.4-.06-.81-.11-1.2-.21-.11-.03-.28-.18-.28-.28-.02-.86,0-1.71,0-2.57,0-.27.14-.37.4-.42,1.09-.2,2.18-.4,3.27-.62,1.04-.21,2.08-.42,3.11-.64,1.59-.34,3.18-.69,4.76-1.06.36-.08.53-.04.63.38.43,1.79.7,3.6.81,5.5Z"/></g></svg>