<?xml version="1.0" encoding="UTF-8"?><svg xmlns="http://www.w3.org/2000/svg" viewBox="0 0 175.98 60"><defs><style>.cls-1{fill:none;stroke:#009fe8;stroke-miterlimit:10;stroke-width:10px;}.cls-2{fill:#dfd7cd;}</style></defs><g id="_레이어_2"><rect class="cls-1" x="-1277.3" y="-148.11" width="2154.32" height="1174.2"/></g><g id="_레이어_1"><path class="cls-2" d="m169.41,39.45c-3.39,0-5.14,2.24-5.42,2.57-.86-1.62-2.43-2.57-4.5-2.57-2.99,0-4.69,1.74-4.97,2.02-.12-.47-.74-1.73-2.67-1.73-.56,0-1.37.18-1.44.19.08.36.45,2.13.45,4.57v10.74h3.93v-10.95c.08-.07,1.55-1.56,3.32-1.56s2.65,1.32,2.65,3.12v9.38h3.95v-10.95c.08-.08,1.52-1.55,3.31-1.55s2.62,1.32,2.62,3.12v9.38h3.97v-9.99c0-3.51-2-5.79-5.19-5.79Z"/><path class="cls-2" d="m126.31,52.4c-2.67,0-4.58-2.11-4.58-4.87,0-3.07,2.17-4.9,4.58-4.9,1.3,0,1.85.4,2.71.4.92,0,1.41-.44,1.86-1.33.25-.49.4-.77.4-.77-.2-.12-2.19-1.48-5.57-1.48-4.95,0-7.92,3.55-7.92,8.08,0,4.95,3.39,8.05,7.92,8.05,3.28,0,5.27-1.34,5.62-1.59l-1.36-2.69c-.3.19-1.71,1.1-3.66,1.1Z"/><path class="cls-2" d="m83.2,39.45c-3.77,0-6.95,3.06-6.95,8.08s3.08,8.05,7.69,8.05c3.66,0,5.56-1.6,5.79-1.75,0,0-.36-.58-.46-.74-.51-.84-1.1-1.11-1.75-1.11-1.3,0-1.46.54-3.22.54-3.01,0-4.06-2.35-4.13-3.92h10.08v-1.17c0-4.81-2.77-7.98-7.06-7.98Zm-3.03,6.36c0-1.76,1.24-3.4,2.97-3.4,1.94,0,3.01,1.69,3.04,3.4h-6.02Z"/><path class="cls-2" d="m96.99,50.89v-16.08c0-1.82-1.21-3.22-3.09-3.22h-.84v20.88c0,1.92,1.19,3.12,3.26,3.12,2.55,0,3.32-1.82,3.32-3.52-.11.06-.65.27-1.19.27-.91,0-1.45-.53-1.45-1.44Z"/><path class="cls-2" d="m70.7,50.35v-7.65h3.29l1.15-2.96h-4.43v-4.62s-.35,0-.37,0c-1.75,0-3.56.74-3.56,4.59v.04h-2.91v2.96h2.91v9.01c0,2.55,1.51,3.88,3.65,3.88,1.73,0,3.96-.53,3.96-3.95-.14.08-.97.62-1.89.62-1.28,0-1.79-.78-1.79-1.91Z"/><path class="cls-2" d="m107.87,39.45c-3.77,0-6.95,3.06-6.95,8.08s3.08,8.05,7.69,8.05c3.66,0,5.56-1.6,5.79-1.75,0,0-.36-.58-.46-.74-.51-.84-1.1-1.11-1.75-1.11-1.3,0-1.46.54-3.22.54-3.01,0-4.06-2.35-4.13-3.92h10.09v-1.17c0-4.81-2.77-7.98-7.06-7.98Zm-3.03,6.36c0-1.76,1.24-3.4,2.97-3.4,1.94,0,3.01,1.69,3.04,3.4h-6.02Z"/><path class="cls-2" d="m140.35,55.58c-4.81,0-7.71-3.18-7.71-8.06s2.86-8.07,7.71-8.07,7.71,3.21,7.71,8.07c0,4.6-2.64,8.06-7.71,8.06Zm0-3.03c2.41,0,3.8-2.07,3.8-5.03s-1.36-5.05-3.8-5.05-3.8,2.05-3.8,5.05,1.36,5.03,3.8,5.03Z"/><path class="cls-2" d="m13.69,38.04c-2.37-1.11-4.32-2.01-4.32-3.82,0-1.39,1.11-2.4,3.3-2.4.81,0,1.47.1,2.15.22.36.06.74.11,1.05.11,1.91,0,3-1.14,3.71-3.31l.3-.89c-.31-.12-3.43-1.5-7.51-1.5-6.49,0-9.91,4.16-9.91,8.48,0,2.18.68,3.76,1.75,5,1.38,1.6,3.34,2.65,5.17,3.54,2.67,1.31,5.09,2.28,5.09,4.23,0,1.72-1.78,2.71-4.16,2.71-3.27,0-6.12-1.87-6.48-2.09l-2.68,5.03c.48.27,3.93,2.46,9.61,2.46,6.06,0,10.64-3.48,10.64-8.82s-4.25-7.29-7.69-8.95Z"/><path class="cls-2" d="m37.38,40.53l10.99-13.47h-7.83l-8.76,11.62h-.13v-11.62h-6.45v28.53h.39c2.79,0,6.11-1.29,6.11-5.95v-6.55h.13l8.93,12.15h8.21l-11.58-14.71Z"/><path class="cls-2" d="m46.51,5.86c-1.64.31-4.06,1.79-4.05,4.42,0,2.39,1.96,3.83,1.96,6.96,0,2.35-1.29,3.93-2.69,4.81.57-.05,1.19-.08,1.87-.08,1.43,0,2.3.13,2.35.14l7.34-9.01c-2.04-3.05-4.42-5.42-6.78-7.24Z"/><path class="cls-2" d="m52.67,30.18c.93-1.44,1.04-3.73,1.12-6.07.09-2.18.54-3.82,3.46-3.83.65,0,1.26.09,2.37.08,4.27-.02,7.06-1.49,8.79-2.45-3.54-2.26-8.71-4.56-15.13-4.82-.42,1.18-3.67,10.22-3.91,10.95.04.04.61.68,1.32,1.93,1.05,1.71,1.61,3.16,1.99,4.21Z"/><path class="cls-2" d="m37.17,22.8c-.37,0-.56-.24-.61-.67-.05-.42-1.88-17.22-2.16-19.76-.04-.37-.13-1.05-.13-1.3,0-.39.25-.6.55-.6.87,0,5.61,1.11,10.64,4.63-1.45.41-4.07,1.92-4.06,5.04,0,2.76,1.99,4.28,2,7.06.02,4.51-5.17,5.6-6.24,5.6Z"/><path class="cls-2" d="m53.1,31.38c.08.21.15.39.23.51.12.2.27.29.45.28.12,0,.26-.04.42-.11.39-.18,15.72-7.31,18.03-8.38.34-.16.97-.44,1.18-.57.22-.12.32-.3.32-.49,0-.1-.03-.21-.09-.3-.29-.47-1.77-2.04-4.25-3.76-1.97,1.08-5.04,2.76-9.62,2.78-1.12,0-1.37-.07-2.14-.07-2.23,0-2.79.96-2.87,2.92-.01.37-.02.87-.04,1.41-.07,1.75-.28,4.16-1.61,5.78Z"/></g></svg>