<?xml version="1.0" encoding="UTF-8"?><svg xmlns="http://www.w3.org/2000/svg" viewBox="0 0 245.28 60"><defs><style>.cls-1{fill:none;stroke:#009fe8;stroke-miterlimit:10;stroke-width:10px;}.cls-2{fill:#dfd7cd;}</style></defs><g id="_레이어_2"><rect class="cls-1" x="-1878.2" y="-376.02" width="2154.32" height="1174.2"/></g><g id="_레이어_1"><path class="cls-2" d="m82.2,43.74c2.21-2.97,1.74-6.17,1.76-9.28.02-4.22,0-8.43-.23-12.72-.14.29-.3.56-.41.86-2.39,6.57-4.79,13.13-7.13,19.72-.41,1.15-.97,1.56-2.22,1.53-3.66-.08-3.64-.03-4.89-3.42-2.26-6.13-4.53-12.25-6.8-18.37-.08-.22-.21-.42-.49-.96-.07.61-.12.83-.12,1.06,0,5.21-.09,10.42.07,15.63.06,1.99.71,3.96,1.1,5.96h-7.03c2.35-3.37,1.71-7.1,1.77-10.7.06-3.61.01-7.22.01-10.83,0-2.39-.16-4.74-1.94-7.1,1.58,0,2.82,0,4.06,0,1.24,0,2.48,0,3.71,0,2.42,0,2.4,0,3.22,2.28,2.31,6.37,4.63,12.73,7.07,19.42.31-.68.52-1.06.66-1.45,2.31-6.33,4.63-12.66,6.88-19.01.33-.94.79-1.28,1.77-1.26,2.72.06,5.45.02,8.5.02-2.16,2.84-1.9,5.91-1.91,8.93,0,4.18,0,8.36,0,12.54,0,2.48.09,4.94,1.91,7.17h-9.34Z"/><path class="cls-2" d="m219.6,43.82c-2.02,0-3.87.06-5.71-.04-.42-.02-.94-.52-1.19-.94-4.16-6.93-8.28-13.88-12.41-20.83-.18-.3-.39-.59-.73-1.11-.08.49-.17.75-.17,1.02.01,5.47-.05,10.93.11,16.39.05,1.78.73,3.55,1.13,5.39h-7.07c2.59-4.02,1.4-8.48,1.62-12.77.13-2.47.03-4.95.02-7.42-.01-2.82.23-5.69-1.86-8.38,3.2,0,6.06-.04,8.92.05.4.01.9.6,1.16,1.03,3.73,6.29,7.42,12.59,11.12,18.9.19.33.41.64.83.92-.61-6.9,1.44-13.94-1.38-20.78h7.28c-2.58,3.93-1.52,8.25-1.64,12.4-.14,4.79-.03,9.59-.03,14.39v1.81Z"/><path class="cls-2" d="m95.02,15.11c1.39,0,2.3-.02,3.2,0,4.17.12,8.34.2,12.51.41,1,.05,2.01.44,2.96.81,2.02.77,3.38,2.13,3.63,4.39.25,2.26-.6,4.04-2.45,5.32-.78.54-1.63.99-2.64,1.59.42.13.65.21.88.26,4.36,1.02,6.32,3.56,6.2,8.07-.1,3.89-2.55,6.82-6.54,7.44-2.28.35-4.61.38-6.93.42-3.44.06-6.88.02-10.68.02,2.62-3.71,1.65-7.67,1.79-11.47.1-2.99.02-5.98.02-8.98,0-2.77.26-5.59-1.95-8.26Zm7.8,25.16c2.51,0,4.88.22,7.19-.07,2-.25,3.09-1.87,3.27-4.13.15-1.93-.16-3.84-2.07-4.78-2.68-1.32-5.55-.65-8.38-.74v9.72Zm-.06-21.94c0,2.76,0,5.33,0,7.9,0,.35.06.71.11,1.26,1.56,0,3.1,0,4.63,0,2.06,0,2.9-.49,3.45-2.51,1.14-4.19-.12-6.84-4.57-6.65-1.12.05-2.25,0-3.62,0Z"/><path class="cls-2" d="m178.38,43.82c-2.29,0-4.2.07-6.08-.05-.48-.03-1.04-.57-1.35-1.02-2.09-3.06-4.2-6.11-6.13-9.27-.86-1.4-1.81-2.11-3.45-1.81-.4.07-.82.01-1.5.01.23,4.06-.85,8.15,1.72,12.01h-9.11c2.55-4.1,1.46-8.64,1.66-13.03.1-2.26.02-4.53.02-6.8,0-2.97.22-5.99-1.84-8.64,5.56,0,10.87-.19,16.15.07,3.71.18,6.67,2.81,7.15,5.61.55,3.17-1.35,6.67-4.64,8.54-.53.3-1.09.56-1.79.93,3.01,4.41,5.98,8.75,9.2,13.45Zm-18.43-15.58c.22.09.36.18.5.19,1.8.07,3.6.05,5.39.2,1.38.11,2.28-.47,2.85-1.62.39-.77.75-1.59.92-2.43.55-2.74-.45-5.31-2.56-5.76-2.3-.49-4.71-.44-7.1-.63v10.05Z"/><path class="cls-2" d="m141.61,15.18h7.74c-2.33,3.28-1.67,6.95-1.79,10.5-.12,3.29.09,6.63-.46,9.85-.94,5.48-4.78,8.53-10.33,8.85-4.21.24-8.15-.36-11.06-3.84-2.1-2.5-2.64-5.53-2.73-8.67-.07-2.37.01-4.74-.02-7.11-.04-3.21.49-6.52-1.74-9.55h8.97c-2.57,6.01-1.49,12.34-1.19,18.51.26,5.48,6.09,8.26,10.71,5.59,2.35-1.36,3.19-3.67,3.26-6.14.14-4.53.12-9.07-.05-13.6-.05-1.42-.82-2.81-1.31-4.39Z"/><path class="cls-2" d="m32.51,43.73h-7.15c3.62-9.14,7.29-18.39,10.96-27.64.08-.19.15-.53.25-.54,1.69-.17,3.39-.37,5.09-.36.39,0,.94.68,1.14,1.17,2.52,6.24,4.96,12.52,7.49,18.76,1.16,2.85,2.46,5.64,3.74,8.57h-9.15c1.29-2.15.62-4.18-.12-6.24-.29-.8-.62-1.15-1.51-1.13-3.09.05-6.19-.02-9.28.06-.45.01-1.12.48-1.3.9-.87,2.05-1.65,4.15-.15,6.46Zm10.9-10.61c-1.54-4.06-2.98-7.85-4.59-12.09-1.67,4.31-3.15,8.14-4.68,12.09h9.28Z"/><path class="cls-2" d="m242.82,22.15c-2.15-2.33-4.3-3.82-7.06-3.93-1.24-.05-2.58.13-3.74.56-1.3.49-2.11,1.61-2.19,3.11-.07,1.45.61,2.53,1.8,3.19,1.17.63,2.45,1.07,3.69,1.55,1.2.46,2.45.8,3.62,1.33,3.6,1.63,5.37,4.66,5,8.4-.4,4.09-2.67,6.85-6.65,7.68-4.09.85-8.09.54-11.83-1.55-.89-.5-1.37-1.11-1.28-2.22.11-1.38.03-2.77.03-4.48,1.02.9,1.81,1.64,2.66,2.31,2.31,1.82,4.9,2.78,7.89,2.52,1.79-.16,3.22-1.23,3.66-2.83.49-1.8-.09-3.39-1.84-4.3-1.59-.82-3.31-1.37-4.97-2.07-1.04-.44-2.1-.84-3.08-1.39-2.8-1.57-4.28-3.99-4.17-7.22.11-3.38,1.88-5.77,4.89-7.1,4.13-1.83,8.32-1.61,12.43.23.84.38,1.25.92,1.18,1.9-.09,1.28-.02,2.56-.02,4.32Z"/><path class="cls-2" d="m27.13,15.21v6.11c-3.21-1.86-6.52-2.7-10.3-2.22,0,.55,0,1.1,0,1.64,0,4.74,0,9.48,0,14.22,0,1.49-.1,3.01.14,4.47.23,1.43.84,2.8,1.32,4.28h-9.01c2.02-2.64,1.81-5.6,1.82-8.52.02-4.79,0-9.58,0-14.38,0-.55,0-1.11,0-1.72-3.75-.49-7.06.34-10.27,2.21v-6.1h26.29Z"/><path class="cls-2" d="m180.24,15.19h9.43c-2.29,3.13-1.77,6.6-1.79,9.95-.04,4.53-.03,9.07.17,13.59.07,1.67.74,3.32,1.15,5.01h-8.8c2.6-3.8,1.51-7.96,1.68-11.96.12-2.88.01-5.77.03-8.65.02-2.68.19-5.38-1.87-7.94Z"/></g></svg>