<?xml version="1.0" encoding="UTF-8"?><svg xmlns="http://www.w3.org/2000/svg" viewBox="0 0 240.95 60"><defs><style>.cls-1{fill:none;stroke:#009fe8;stroke-width:10px;}.cls-1,.cls-2{stroke-miterlimit:10;}.cls-2{fill:#dfd7cd;stroke:#dfd7cd;stroke-width:.4px;}</style></defs><g id="_레이어_2"><rect class="cls-1" x="-780.34" y="-463.71" width="2154.32" height="1174.2"/></g><g id="_레이어_1"><path class="cls-2" d="m120.88,23.77l-9.56-5.52v-6.08l9.56-5.55,6.64,3.86-2.56,1.48-3.74-2.07c-.22-.12-.49-.11-.7.01l-8.03,4.66c-.21.12-.35.35-.35.6h0c0,.25.13.47.35.6l8.03,4.66c.11.06.23.09.35.09s.24-.03.35-.09l9.21-5.35v3.26l-9.56,5.46Zm-2.7-10.92l2.71-1.57,2.69,1.49-2.71,1.57-2.69-1.49Zm2.7-11l9.56,5.52v6.08l-9.56,5.55-6.64-3.86,2.56-1.48,3.74,2.07c.21.12.48.12.69,0l8.03-4.66c.21-.12.34-.35.34-.6h0c0-.25-.13-.48-.34-.6l-8.03-4.66c-.22-.13-.49-.13-.7,0l-9.21,5.35v-3.26l9.56-5.46Zm10.61,4.52L121.23.46c-.22-.12-.48-.12-.7,0l-10.26,5.85c-.22.12-.35.35-.35.6v4.86h0v6.88c0,.25.13.47.35.6l10.26,5.92c.11.06.23.09.35.09s.24-.03.35-.09l10.26-5.85c.22-.12.35-.35.35-.6v-4.86h0v-6.88c0-.25-.13-.47-.35-.6"/><path class="cls-2" d="m11.11,43.71v-8.23h1.45v8.75c0,3.98-2,5.8-5.39,5.8s-5.39-1.83-5.39-5.8v-8.75h1.45v8.23c0,3.56,1.31,5.07,3.94,5.07s3.94-1.51,3.94-5.07"/><path class="cls-2" d="m19.05,36.73v5.65h3.33c2.63,0,3.73-1.03,3.73-2.76v-.2c0-1.67-1.14-2.68-3.5-2.68h-3.56Zm4.36,6.88c-.19.02-.38.02-.57.02h-3.79v6.18h-1.47v-14.33h5.24c3.03,0,4.78,1.65,4.78,3.9v.3c0,1.73-1.05,3.06-2.74,3.64l3.05,6.5h-1.58l-2.93-6.2Z"/><path class="cls-2" d="m33.87,48.58h3.92c2.38,0,3.5-.87,3.5-2.56v-.44c0-1.75-.93-2.66-3.96-2.66h-3.45v5.66Zm0-11.89v5.05h3.43c2.11,0,3.31-.6,3.31-2.39v-.36c0-1.69-1.07-2.31-3.45-2.31h-3.29Zm-1.45-1.21h4.84c3.22,0,4.82,1.15,4.82,3.5v.42c0,1.25-.63,2.44-2.44,2.86,1.85.26,3.14,1.29,3.14,3.28v.5c0,2.35-1.58,3.78-4.87,3.78h-5.5v-14.33Z"/><path class="cls-2" d="m49.37,44.15h5.5l-1.47-3.88c-.38-.97-.65-1.69-1.26-3.56-.57,1.87-.86,2.58-1.24,3.56l-1.52,3.88Zm9.23,5.66h-1.58l-1.69-4.45h-6.42l-1.73,4.45h-1.52l5.65-14.33h1.66l5.62,14.33Z"/><path class="cls-2" d="m62.39,35.48h1.75l6.97,11.21c.25.4.42.73.72,1.33v-12.54h1.41v14.33h-1.75l-6.99-11.25c-.25-.42-.42-.7-.69-1.29v12.54h-1.41v-14.33Z"/><polygon class="cls-2" points="86.63 35.48 86.63 48.58 94.23 48.58 94.23 49.81 85.15 49.81 85.15 35.48 86.63 35.48"/><path class="cls-2" d="m100.4,44.15h5.5l-1.47-3.88c-.38-.97-.65-1.69-1.26-3.56-.57,1.87-.86,2.58-1.24,3.56l-1.52,3.88Zm9.23,5.66h-1.58l-1.68-4.45h-6.42l-1.73,4.45h-1.52l5.64-14.33h1.66l5.62,14.33Z"/><path class="cls-2" d="m122.68,43.71v-8.23h1.45v8.75c0,3.98-2,5.8-5.39,5.8s-5.39-1.83-5.39-5.8v-8.75h1.45v8.23c0,3.56,1.31,5.07,3.94,5.07s3.94-1.51,3.94-5.07"/><path class="cls-2" d="m129.14,35.48h1.75l6.97,11.21c.25.4.42.73.72,1.33v-12.54h1.41v14.33h-1.75l-6.99-11.25c-.25-.42-.42-.7-.69-1.29v12.54h-1.41v-14.33Z"/><path class="cls-2" d="m146.54,48.58h3.29c2.72,0,4.65-1.59,4.65-5.01v-1.85c0-3.42-1.94-5.01-4.65-5.01h-3.29v11.87Zm3.26-13.1c3.83,0,6.15,2.19,6.15,6.14v2.05c0,3.96-2.32,6.14-6.15,6.14h-4.74v-14.33h4.74Z"/><polygon class="cls-2" points="169.85 35.48 169.85 36.71 162.18 36.71 162.18 41.84 169.41 41.84 169.41 43.07 162.18 43.07 162.18 48.58 170 48.58 170 49.81 160.71 49.81 160.71 35.48 169.85 35.48"/><path class="cls-2" d="m176.14,36.73v5.65h3.33c2.63,0,3.73-1.03,3.73-2.76v-.2c0-1.67-1.14-2.68-3.5-2.68h-3.56Zm4.36,6.88c-.19.02-.38.02-.57.02h-3.79v6.18h-1.47v-14.33h5.24c3.03,0,4.78,1.65,4.78,3.9v.3c0,1.73-1.05,3.06-2.74,3.64l3.05,6.5h-1.58l-2.93-6.2Z"/><polygon class="cls-2" points="198.66 35.48 198.66 36.71 190.99 36.71 190.99 41.84 198.21 41.84 198.21 43.07 190.99 43.07 190.99 48.58 198.8 48.58 198.8 49.81 189.52 49.81 189.52 35.48 198.66 35.48"/><polygon class="cls-2" points="213.34 35.48 213.34 36.71 208.47 36.71 208.47 49.81 207 49.81 207 36.71 202.15 36.71 202.15 35.48 213.34 35.48"/><polygon class="cls-2" points="226.94 35.48 226.94 36.71 222.07 36.71 222.07 49.81 220.6 49.81 220.6 36.71 215.75 36.71 215.75 35.48 226.94 35.48"/><polygon class="cls-2" points="239.83 35.48 239.83 36.71 232.16 36.71 232.16 41.84 239.38 41.84 239.38 43.07 232.16 43.07 232.16 48.58 239.97 48.58 239.97 49.81 230.69 49.81 230.69 35.48 239.83 35.48"/></g></svg>