<?xml version="1.0" encoding="utf-8"?>
<!-- Generator: Adobe Illustrator 27.5.0, SVG Export Plug-In . SVG Version: 6.00 Build 0)  -->
<svg version="1.1" xmlns="http://www.w3.org/2000/svg" xmlns:xlink="http://www.w3.org/1999/xlink" x="0px" y="0px"
	 viewBox="0 0 268.38 60" style="enable-background:new 0 0 268.38 60;" xml:space="preserve">
<style type="text/css">
	.st0{fill:#E0D8CE;}
	.st1{opacity:0.8;fill:#E0D8CE;}
	.st2{fill:none;stroke:#415649;stroke-width:0.25;stroke-miterlimit:10;}
	.st3{fill:none;stroke:#4C4C4B;stroke-width:0.25;stroke-miterlimit:10;}
	.st4{fill:#4A423F;}
	.st5{fill:#6F6967;}
	.st6{fill:#655F5D;}
	.st7{fill:url(#SVGID_1_);}
	.st8{fill:url(#SVGID_00000083770047814705071060000001482717324387851434_);}
	.st9{fill:url(#SVGID_00000179641560753589973650000008644090303935889537_);}
	.st10{fill:none;stroke:#ECE1D6;stroke-width:3;stroke-miterlimit:10;}
	.st11{fill:#ECE1D6;}
	.st12{fill:url(#SVGID_00000181059326840130639240000003815911127293820320_);}
	.st13{fill:url(#SVGID_00000130620422915023759320000000532703779581384843_);}
	.st14{fill:none;stroke:#ECE1D6;stroke-width:2.5;stroke-miterlimit:10;}
	.st15{opacity:0.7;fill:#ECE1D6;}
	
		.st16{opacity:0.5;clip-path:url(#SVGID_00000163786639173528707340000009319874297519778734_);fill:url(#SVGID_00000042709306595069896070000013839439430241058737_);}
	
		.st17{clip-path:url(#SVGID_00000057126419095692768040000004271233831068658073_);fill:url(#SVGID_00000134239606480571987910000015554126125131161249_);}
	
		.st18{clip-path:url(#SVGID_00000067929402911916989910000005277622478614997653_);fill:url(#SVGID_00000183220498814547118000000002031940803736385185_);}
	
		.st19{opacity:0.5;clip-path:url(#SVGID_00000020395562179616402050000005627778911406272422_);fill:url(#SVGID_00000177461908833673156420000006875464940988741765_);}
	
		.st20{opacity:0.5;clip-path:url(#SVGID_00000050620698951469480560000008408180486710028934_);fill:url(#SVGID_00000157267078988339299600000012705004093731233704_);}
	.st21{clip-path:url(#SVGID_00000078017663402764101260000001204208483101721993_);fill:#ECE1D6;}
	.st22{fill:#DFD7CE;}
	.st23{fill:url(#SVGID_00000064316173159260506520000013005065517773515691_);}
	.st24{fill:url(#SVGID_00000049929488208000539720000015760934151551459483_);}
	.st25{fill:url(#SVGID_00000095305710568900020690000018220708542070542514_);}
	.st26{fill:#4C4C4B;}
	.st27{fill:url(#SVGID_00000033334110176549782550000007208912895511675061_);}
	.st28{fill:url(#SVGID_00000018935994243137880650000008928670138811583159_);}
	
		.st29{opacity:0.5;clip-path:url(#SVGID_00000162351224200904113650000008628529379739995322_);fill:url(#SVGID_00000036243119142705655500000003741494681474665633_);}
	
		.st30{clip-path:url(#SVGID_00000172402856960672578820000013713979046969351605_);fill:url(#SVGID_00000020389358947700734410000015226376668952886455_);}
	
		.st31{clip-path:url(#SVGID_00000064319387920157149110000001346677672842415512_);fill:url(#SVGID_00000144306146507789775830000008765519920820490397_);}
	
		.st32{opacity:0.5;clip-path:url(#SVGID_00000097470104030923490570000016730790745275685770_);fill:url(#SVGID_00000044876863812551859210000011714935646336613511_);}
	
		.st33{opacity:0.5;clip-path:url(#SVGID_00000111888397590430669010000001451891356294177952_);fill:url(#SVGID_00000099643355774564063480000017230174925891323526_);}
	.st34{clip-path:url(#SVGID_00000058552683861618568220000017146954140845600177_);fill:#4C4C4B;}
	.st35{fill:none;stroke:#2096D5;stroke-miterlimit:10;}
	.st36{fill-rule:evenodd;clip-rule:evenodd;fill:#E0D8CE;}
	.st37{fill:none;stroke:#00A0E9;stroke-width:10;stroke-miterlimit:10;}
	.st38{fill:none;stroke:#E0D8CE;stroke-miterlimit:10;}
	.st39{opacity:0.7;fill:#E0D7CE;}
	.st40{fill:#E0D7CE;}
	.st41{clip-path:url(#SVGID_00000092455029215786641540000005450617530374312834_);}
	.st42{clip-path:url(#SVGID_00000146495315545876350530000013391147494178004913_);}
	.st43{clip-path:url(#SVGID_00000124882976802958857550000001359628126039500696_);}
	.st44{clip-path:url(#SVGID_00000015332275704501520490000017433850740028693120_);}
	.st45{clip-path:url(#SVGID_00000111174742944293429250000014514173538401279679_);}
	.st46{clip-path:url(#SVGID_00000111162975724860186830000004083828465714141075_);}
	.st47{fill:#F1EBE3;}
	.st48{clip-path:url(#SVGID_00000179620562037576044280000015066812173446941336_);}
	.st49{fill-rule:evenodd;clip-rule:evenodd;fill:#E0D7CE;}
	.st50{display:none;}
	.st51{display:inline;fill:none;stroke:#00A0E9;stroke-width:10;stroke-miterlimit:10;}
	.st52{display:inline;fill:none;stroke:#E0D8CE;stroke-miterlimit:10;}
</style>
<g id="레이어_2">
</g>
<g id="레이어_1">
	<g>
		<path class="st40" d="M19.69,21.66c0,0.91,0.05,1.82-0.01,2.72c-0.19,2.97-2.02,5.32-4.94,5.67c-2.51,0.3-5.12,0.27-7.62-0.11
			c-3.27-0.49-5.32-3.57-5.02-6.86c0.56-6.11,5.65-10.56,11.66-10.2c3.42,0.21,5.74,2.56,5.93,6.04
			C19.74,19.84,19.7,20.75,19.69,21.66C19.7,21.66,19.69,21.66,19.69,21.66z"/>
		<path class="st40" d="M19.64,43.25c0,1.02,0.11,2.06-0.02,3.06c-0.63,4.84-4.92,7.14-10.05,5.25c-4.71-1.73-7.05-5.39-7.53-9.85
			c-0.4-3.77,2.54-6.85,6.35-6.94c1.53-0.04,3.07-0.01,4.6-0.01c4.25,0,6.66,2.37,6.71,6.61c0.01,0.62,0,1.25,0,1.87
			C19.68,43.25,19.66,43.25,19.64,43.25z"/>
		<path class="st40" d="M32.81,30.22c-0.8,0-1.59,0.04-2.39-0.01c-3.78-0.24-6.02-2.63-6.03-6.4c0-1.65-0.02-3.3,0.01-4.95
			c0.05-3.29,2.49-5.68,5.77-5.99c6.03-0.57,10.68,4.45,11.49,9.06c0.81,4.58-1.82,8.02-6.46,8.28
			C34.4,30.26,33.61,30.22,32.81,30.22z"/>
		<path class="st40" d="M32.77,34.77c0.51,0,1.02-0.01,1.53,0c5.79,0.1,8.56,3.81,7.04,9.41c-1.52,5.62-7.74,9.24-12.96,7.54
			c-2.27-0.74-3.93-2.96-3.97-5.39c-0.03-1.87-0.02-3.75-0.01-5.62c0.02-3.03,2.3-5.54,5.31-5.83c1.01-0.1,2.04-0.11,3.06-0.16
			C32.77,34.74,32.77,34.76,32.77,34.77z"/>
		<g>
			<path class="st40" d="M50.53,45.55V19.14h6.43L67.67,36.7h0.12V19.14h5.05v26.41h-5.66L55.7,26.61h-0.12v18.94H50.53z"/>
			<path class="st40" d="M79.35,45.55V19.14h18.03l-0.48,4.12H85.09v6.7h9.42l-0.6,4.08h-8.82v7.32h12.29l-0.48,4.2H79.35z"/>
			<path class="st40" d="M123.78,42.53c-2.37,2.3-5.48,3.45-9.34,3.45c-3.85,0-6.93-1.12-9.24-3.37c-2.3-2.25-3.46-5.51-3.46-9.8
				v-0.89c0-4.24,1.19-7.49,3.56-9.78c2.37-2.28,5.48-3.43,9.34-3.43c3.85,0,6.93,1.12,9.24,3.35c2.3,2.23,3.46,5.51,3.46,9.82v0.85
				C127.34,36.97,126.15,40.23,123.78,42.53z M114.56,41.82c2.21,0,3.89-0.76,5.03-2.29c1.15-1.53,1.72-3.63,1.72-6.3v-1.31
				c0-3-0.55-5.26-1.64-6.78c-1.09-1.51-2.84-2.28-5.24-2.31c-2.16,0-3.8,0.76-4.93,2.29c-1.13,1.53-1.7,3.63-1.7,6.3v1.35
				C107.81,38.8,110.06,41.82,114.56,41.82z"/>
			<path class="st40" d="M132.47,45.55V19.14h10.27c6.71,0,10.07,2.68,10.07,8.05c0,2.8-0.87,4.96-2.61,6.49
				c-1.74,1.53-4.14,2.29-7.22,2.29h-4.77v9.59H132.47z M138.21,31.96h3.76c1.72,0,2.96-0.37,3.72-1.1
				c0.75-0.73,1.13-1.88,1.13-3.45c0-1.62-0.36-2.71-1.07-3.29c-0.71-0.58-1.95-0.87-3.7-0.87h-3.84V31.96z"/>
			<path class="st40" d="M157.5,45.55V19.14h5.74v10.74h10.96V19.14h5.78v26.41h-5.78V34.04h-10.96v11.51H157.5z"/>
			<path class="st40" d="M183.61,45.55l9.86-26.41h5.98l9.74,26.41h-5.9l-2.3-6.31h-9.86l-2.26,6.31H183.61z M195.9,25.34
				l-3.48,10.01h7.24l-3.6-10.01H195.9z"/>
			<path class="st40" d="M212.84,45.55V19.14h9.95c6.66,0,9.99,2.62,9.99,7.85c0,3.34-1.64,5.6-4.93,6.78v0.19l6.87,11.59h-6.59
				l-5.5-10.4h-4.04v10.4H212.84z M218.54,31.58h3.56c1.67,0,2.88-0.35,3.62-1.06c0.74-0.71,1.11-1.79,1.11-3.25
				c0-1.44-0.37-2.48-1.11-3.12c-0.74-0.64-1.96-0.96-3.66-0.96h-3.52V31.58z"/>
			<path class="st40" d="M238.27,45.55V19.14h7.96l6.31,18.79h0.12l6.23-18.79h7.84v26.41h-5.66V25.8h-0.12l-6.59,19.75h-4.49
				l-6.51-19.79h-0.12v19.79H238.27z"/>
		</g>
	</g>
</g>
<g id="레이어_3" class="st50">
	<rect x="-1332.43" y="12.9" class="st52" width="2084.75" height="33.56"/>
</g>
</svg>
