<?xml version="1.0" encoding="utf-8"?>
<!-- Generator: Adobe Illustrator 27.5.0, SVG Export Plug-In . SVG Version: 6.00 Build 0)  -->
<svg version="1.1" xmlns="http://www.w3.org/2000/svg" xmlns:xlink="http://www.w3.org/1999/xlink" x="0px" y="0px"
	 viewBox="0 0 140.26 60" style="enable-background:new 0 0 140.26 60;" xml:space="preserve">
<style type="text/css">
	.st0{fill:#E0D8CE;}
	.st1{opacity:0.8;fill:#E0D8CE;}
	.st2{fill:none;stroke:#415649;stroke-width:0.25;stroke-miterlimit:10;}
	.st3{fill:none;stroke:#4C4C4B;stroke-width:0.25;stroke-miterlimit:10;}
	.st4{fill:#4A423F;}
	.st5{fill:#6F6967;}
	.st6{fill:#655F5D;}
	.st7{fill:url(#SVGID_1_);}
	.st8{fill:url(#SVGID_00000119797097932244369320000011908498634194565552_);}
	.st9{fill:url(#SVGID_00000062904955554138098890000002037303841947637381_);}
	.st10{fill:none;stroke:#ECE1D6;stroke-width:3;stroke-miterlimit:10;}
	.st11{fill:#ECE1D6;}
	.st12{fill:url(#SVGID_00000181076807860643756650000010310032963712019640_);}
	.st13{fill:url(#SVGID_00000015333492021314723120000016481796047760662190_);}
	.st14{fill:none;stroke:#ECE1D6;stroke-width:2.5;stroke-miterlimit:10;}
	.st15{opacity:0.7;fill:#ECE1D6;}
	
		.st16{opacity:0.5;clip-path:url(#SVGID_00000047038695162730737280000014857185985069928086_);fill:url(#SVGID_00000169547686371122555610000005703061617996534184_);}
	
		.st17{clip-path:url(#SVGID_00000026854294408546297350000006135933952033070994_);fill:url(#SVGID_00000160883607795516022390000007498849273964856453_);}
	
		.st18{clip-path:url(#SVGID_00000092420870894247168480000000328846374477417384_);fill:url(#SVGID_00000049907197959304384430000001449979129839124923_);}
	
		.st19{opacity:0.5;clip-path:url(#SVGID_00000054947055174043048630000000017875952047968161_);fill:url(#SVGID_00000046301073543883774950000002053639711352578178_);}
	
		.st20{opacity:0.5;clip-path:url(#SVGID_00000022522486934467166040000011052901016565577123_);fill:url(#SVGID_00000158723672785535115490000015749354483760599964_);}
	.st21{clip-path:url(#SVGID_00000085960973504519993330000015142410876537029029_);fill:#ECE1D6;}
	.st22{fill:#DFD7CE;}
	.st23{fill:url(#SVGID_00000035495968641593061520000003051631859297326486_);}
	.st24{fill:url(#SVGID_00000144303155800839696680000000081262036378898836_);}
	.st25{fill:url(#SVGID_00000089547350432330731620000002131759969276430493_);}
	.st26{fill:#4C4C4B;}
	.st27{fill:url(#SVGID_00000178884005162350607610000017671255710674570917_);}
	.st28{fill:url(#SVGID_00000083068110502123485770000013251576743959734406_);}
	
		.st29{opacity:0.5;clip-path:url(#SVGID_00000167374203208842296450000015788781647110716306_);fill:url(#SVGID_00000059289357741386313280000018349386095430367653_);}
	
		.st30{clip-path:url(#SVGID_00000006705124892902535380000002552012097525738893_);fill:url(#SVGID_00000037689806589945298650000003127735773559577493_);}
	
		.st31{clip-path:url(#SVGID_00000150079820308440049710000008805186551797617281_);fill:url(#SVGID_00000082340429688928073270000002112880417543353729_);}
	
		.st32{opacity:0.5;clip-path:url(#SVGID_00000076585581303460206980000001383348122876132760_);fill:url(#SVGID_00000066505028668916310710000005480903474950166970_);}
	
		.st33{opacity:0.5;clip-path:url(#SVGID_00000177442164779959731590000012724321467653446574_);fill:url(#SVGID_00000035501350887231630900000005237375252132791451_);}
	.st34{clip-path:url(#SVGID_00000062899598352075345410000012941390896930740663_);fill:#4C4C4B;}
	.st35{fill:none;stroke:#2096D5;stroke-miterlimit:10;}
	.st36{fill-rule:evenodd;clip-rule:evenodd;fill:#E0D8CE;}
	.st37{fill:none;stroke:#00A0E9;stroke-width:10;stroke-miterlimit:10;}
	.st38{fill:none;stroke:#E0D8CE;stroke-miterlimit:10;}
	.st39{opacity:0.7;fill:#E0D7CE;}
	.st40{fill:#E0D7CE;}
	.st41{clip-path:url(#SVGID_00000149339687019556521990000007508282686288343981_);}
	.st42{clip-path:url(#SVGID_00000054228244633285149790000017953723963122376630_);}
	.st43{clip-path:url(#SVGID_00000176752330560828909270000013612091682321797531_);}
	.st44{clip-path:url(#SVGID_00000160158978748823368490000015557567324029598612_);}
	.st45{clip-path:url(#SVGID_00000084512741074155584580000002850323185558159293_);}
	.st46{clip-path:url(#SVGID_00000047052592748819458500000014718955387391412646_);}
	.st47{fill:#F1EBE3;}
	.st48{clip-path:url(#SVGID_00000034802128809941970550000010407605808416896414_);}
	.st49{fill-rule:evenodd;clip-rule:evenodd;fill:#E0D7CE;}
	.st50{display:none;}
	.st51{display:inline;fill:none;stroke:#00A0E9;stroke-width:10;stroke-miterlimit:10;}
	.st52{display:inline;fill:none;stroke:#E0D8CE;stroke-miterlimit:10;}
</style>
<g id="레이어_2">
</g>
<g id="레이어_1">
	<g>
		<path class="st0" d="M43.82,23.77c-3.38,0-6.62,0-10.01,0c0.19-1,0.3-1.9,0.56-2.74c0.09-0.29,0.57-0.65,0.88-0.66
			c5.12-0.04,10.23-0.06,15.35,0c2.04,0.03,3.14,1.57,2.71,3.68c-1.08,5.31-2.22,10.6-3.34,15.9c-0.31,1.48-0.65,2.96-0.93,4.45
			c-0.13,0.68-0.34,1.03-1.16,1.03C33.8,45.41,19.7,45.44,5.61,45.4c-2.74-0.01-4.23-1.76-3.69-4.43
			c1.51-7.47,3.07-14.94,4.71-22.38c0.6-2.73,2.75-4.47,5.5-4.51c5.59-0.08,11.19-0.03,16.78-0.03c0.2,0,0.41,0.08,0.73,0.15
			c-0.25,1.23-0.48,2.4-0.75,3.74c-1.76,0-3.49,0-5.21,0c-1.86,0-3.73,0.02-5.59-0.01c-0.66-0.01-0.99,0.16-1.15,0.88
			c-1.61,7.36-3.27,14.72-4.9,22.08c-0.04,0.16-0.03,0.34-0.05,0.65c2.16,0,4.27,0,6.39,0c1.95,0,3.9-0.02,5.85,0.01
			c0.71,0.01,1.05-0.14,1.2-0.95c0.54-2.94,1.19-5.86,1.81-8.78c0.66-3.17,2.3-4.52,5.52-4.53c2.95-0.01,5.9-0.05,8.84,0.02
			c1.1,0.03,1.7-0.24,1.79-1.41C43.43,25.26,43.64,24.63,43.82,23.77z M42.34,30.78c-0.79,0-1.39,0-1.99,0c-3.23,0-3.24,0-3.93,3.19
			c-0.57,2.64-1.12,5.28-1.7,7.98c1.82,0,3.5,0,5.22,0C40.73,38.27,41.51,34.65,42.34,30.78z"/>
		<path class="st0" d="M138.46,20.35c-0.69,3.22-1.33,6.22-1.97,9.23c-1.21,5.63-2.41,11.27-3.62,16.9c-0.17,0.8-0.39,1.6-0.66,2.38
			c-0.94,2.75-2.38,3.93-5.27,3.94c-15.13,0.04-30.27,0.02-45.4,0.02c-0.17,0-0.33-0.05-0.66-0.11c0.16-1.08,0.29-2.14,0.51-3.17
			c0.05-0.23,0.42-0.49,0.69-0.56c0.36-0.1,0.77-0.03,1.16-0.03c12.57,0,25.15,0.01,37.72-0.01c2.15,0,1.98,0.41,2.32-1.91
			c0.07-0.46,0.15-0.92,0.26-1.59c-1.41,0-2.7,0-3.98,0c-2.08,0-4.16,0.03-6.24-0.02c-2.73-0.07-4.22-1.79-3.68-4.44
			c1.34-6.62,2.78-13.23,4.21-19.83c0.06-0.29,0.42-0.74,0.65-0.75c2.98-0.05,5.96-0.03,9.12-0.03c-1.53,7.27-3.03,14.38-4.54,21.57
			c1.75,0,3.42,0,5.22,0c0.68-3.19,1.36-6.4,2.04-9.61c0.77-3.64,1.53-7.29,2.34-10.93c0.09-0.39,0.54-0.99,0.84-0.99
			C132.43,20.32,135.33,20.35,138.46,20.35z"/>
		<path class="st0" d="M105.72,45.43c-2.56,0-4.99,0-7.41,0c-3.99,0-7.98,0.02-11.97-0.01c-3.4-0.02-4.77-1.79-4.05-5.14
			c1.13-5.25,2.24-10.51,3.38-15.76c0.63-2.88,2.28-4.17,5.24-4.18c3.12-0.01,6.24-0.03,9.37,0.01c0.84,0.01,1.24-0.22,1.38-1.1
			c0.22-1.45,0.54-2.9,0.92-4.32c0.09-0.35,0.55-0.85,0.85-0.85c2.9-0.06,5.79-0.04,8.9-0.04
			C110.12,24.56,107.94,34.91,105.72,45.43z M95.45,23.82c-1.28,6.07-2.55,12.05-3.83,18.1c1.84,0,3.51,0,5.23,0
			c1.28-6.05,2.54-12.03,3.82-18.1C98.88,23.82,97.25,23.82,95.45,23.82z"/>
		<path class="st0" d="M72.97,23.77c-1.62,0-3.13-0.06-4.63,0.05c-0.3,0.02-0.71,0.64-0.8,1.04c-1.42,6.48-2.79,12.96-4.18,19.44
			c-0.07,0.34-0.18,0.67-0.28,1.06c-3.17,0-6.32,0-9.59,0c0.79-3.71,1.56-7.34,2.34-10.98c0.91-4.28,1.84-8.56,2.71-12.85
			c0.17-0.85,0.43-1.22,1.4-1.22c6.42,0.05,12.84,0.01,19.26,0.03c2.58,0.01,3.73,1.4,3.2,3.95c-1.39,6.75-2.82,13.49-4.27,20.22
			c-0.07,0.33-0.45,0.86-0.7,0.86c-2.98,0.06-5.96,0.04-9.07,0.04C69.91,38.15,71.42,31.04,72.97,23.77z"/>
		<path class="st0" d="M66,16.71c-0.73,0-1.36,0-2.17,0c0.33-1.63,0.64-3.18,0.96-4.76c-0.81-0.4-1.22-0.15-1.37,0.67
			c-0.15,0.81-0.34,1.61-0.51,2.41c-0.4,1.87-0.4,1.87-2.54,1.63c0.36-1.72,0.69-3.44,1.11-5.13c0.06-0.24,0.54-0.51,0.84-0.53
			c1.25-0.06,2.5-0.02,3.76-0.03c0.72-0.01,1.07,0.3,0.92,1.03C66.68,13.56,66.34,15.12,66,16.71z"/>
		<path class="st0" d="M72.59,15.95c1.06,0,2.12,0,3.18,0c0.05,0.11,0.09,0.21,0.14,0.32c-0.21,0.16-0.42,0.46-0.63,0.46
			c-1.34,0.04-2.69,0.09-4.03-0.02c-0.33-0.03-0.63-0.61-0.89-0.97c-0.07-0.1,0.02-0.34,0.06-0.5c1.18-5.15,0.01-4.16,5.43-4.26
			c0.8-0.02,1.12,0.35,0.9,1.14c-0.04,0.12-0.05,0.25-0.08,0.38c-0.49,2.58-0.49,2.56-3.06,2.69c-0.37,0.02-0.73,0.22-1.09,0.34
			C72.53,15.67,72.56,15.81,72.59,15.95z M72.79,14.25c1.38,0.04,1.7-0.56,1.56-2.53C72.62,11.85,73.32,13.32,72.79,14.25z"/>
		<path class="st0" d="M82.96,13.43c0.68,0,1.19-0.02,1.7,0c0.62,0.03,1.39-0.19,1.51,0.77c0.13,1.1-0.55,2.43-1.39,2.5
			c-1.25,0.1-2.51,0.1-3.75,0c-0.29-0.02-0.54-0.6-0.8-0.92c0.29-0.23,0.59-0.64,0.87-0.64c0.48,0.01,1.28-0.48,1.4,0.59
			c0.02,0.14,0.62,0.2,1.05,0.33c0.14-0.62,0.25-1.11,0.41-1.84c-0.67,0-1.21,0.01-1.75,0c-0.63-0.02-1.36,0.12-1.45-0.85
			c-0.11-1.14,0.47-2.31,1.29-2.36c1.29-0.07,2.59-0.07,3.88,0.01c0.27,0.02,0.71,0.52,0.7,0.79c-0.01,0.28-0.47,0.76-0.73,0.76
			c-0.53-0.01-1.37,0.5-1.52-0.58c-0.4,0.08-0.88,0.06-1.19,0.28C82.99,12.41,83.05,12.91,82.96,13.43z"/>
		<path class="st0" d="M93.47,16.07c0.15-0.68,0.25-1.17,0.39-1.85c-0.71,0-1.26,0.01-1.8,0c-0.65-0.01-1.46,0.05-1.37-0.91
			c0.09-0.88-0.08-2.12,1.2-2.28c1.32-0.16,2.68-0.08,4.01-0.01c0.25,0.01,0.69,0.51,0.66,0.71c-0.05,0.32-0.44,0.82-0.69,0.83
			c-0.57,0-1.45,0.49-1.63-0.62c-0.39,0.08-0.89,0.04-1.13,0.27c-0.21,0.2-0.14,0.71-0.22,1.23c0.6,0,1.13-0.09,1.61,0.02
			c0.55,0.13,1.37,0.34,1.51,0.72c0.34,0.94-0.48,2.45-1.28,2.51c-1.29,0.1-2.59,0.09-3.88,0c-0.26-0.02-0.66-0.55-0.67-0.86
			c-0.01-0.23,0.5-0.69,0.77-0.68c0.51,0.02,1.39-0.53,1.46,0.65C92.43,15.89,93.01,15.96,93.47,16.07z"/>
		<path class="st0" d="M37.15,16.63c0.32-1.6,0.63-3.11,0.94-4.64c-0.35-0.19-0.66-0.35-0.87-0.47c0.58-0.62,1.05-1.27,1.66-1.74
			c0.33-0.25,0.88-0.27,1.34-0.29c0.89-0.04,1.79-0.01,2.68-0.01c0.03,0.18,0.07,0.35,0.1,0.53c-0.76,0.14-1.53,0.27-2.29,0.41
			c-0.02,0.1-0.03,0.21-0.05,0.31c0.47,0.12,0.93,0.25,1.71,0.45c-0.44,0.26-0.71,0.55-0.94,0.53c-0.92-0.09-1.2,0.38-1.3,1.19
			c-0.09,0.73-0.3,1.44-0.45,2.16C39.29,16.92,39.29,16.92,37.15,16.63z"/>
		<path class="st0" d="M53.61,11.95c-0.36-0.17-0.65-0.3-0.9-0.42c0.03-0.19,0.02-0.33,0.06-0.35c0.63-0.24,1.15-0.42,1.39-1.26
			c0.1-0.35,1.28-0.4,2.12-0.63c-0.05,0.68-0.08,1.06-0.12,1.51c0.3,0.11,0.63,0.24,1.26,0.47c-2.57,0.76-1.59,2.97-2.51,4.46
			c0.46,0.17,0.79,0.3,1.1,0.42C56,16.28,56,16.43,55.98,16.43c-0.9,0.08-1.81,0.19-2.71,0.16c-0.14-0.01-0.4-0.72-0.35-1.08
			C53.08,14.36,53.35,13.22,53.61,11.95z"/>
		<path class="st0" d="M47.67,16.69c-0.75,0-1.42,0-2.2,0c0.36-1.75,0.63-3.41,1.07-5.03c0.35-1.29,1.41-0.44,2.35-0.71
			C48.45,12.97,48.06,14.8,47.67,16.69z"/>
		<path class="st0" d="M46.87,9.7c0.7-0.08,1.41-0.17,2.11-0.25c0.03,0.15,0.06,0.31,0.08,0.46c-0.55,0.67-1.37,0.22-2.05,0.33
			C46.97,10.06,46.92,9.88,46.87,9.7z"/>
	</g>
</g>
<g id="레이어_3" class="st50">
	<rect x="-1399.92" y="13.98" class="st52" width="2084.75" height="33.56"/>
</g>
</svg>
