<?xml version="1.0" encoding="UTF-8"?><svg xmlns="http://www.w3.org/2000/svg" viewBox="0 0 242.84 60"><defs><style>.cls-1{fill:none;stroke:#009fe8;stroke-miterlimit:10;stroke-width:10px;}.cls-2{fill:#dfd7cd;}</style></defs><g id="_레이어_2"><rect class="cls-1" x="-1569.63" y="-376.02" width="2154.32" height="1174.2"/></g><g id="_레이어_1"><path class="cls-2" d="m26.82,27.99c-1.62,1.81-3.64,3.27-5.98,4.18l-1.35.52v-12.67l1.33.52c2.34.9,4.37,2.35,5.99,4.16,1.16-1.87,1.88-4.03,2.03-6.39.37-6.07-3.43-11.64-8.65-13.58l-4.31-1.43c-1.94-.65-4.01.42-4.66,2.37L2.1,33.01c-.65,1.94.44,4.05,2.39,4.7l20.7,6.91c2.11-2.25,3.47-5.22,3.68-8.53.18-2.96-.59-5.75-2.05-8.09Zm-11.97,5.47h-2.05v-14.19h2.05v14.19Z"/><path class="cls-2" d="m25.62,26.35c-1.15-1.36-2.55-2.5-4.16-3.33v6.67c1.61-.84,3.02-1.98,4.16-3.34"/><path class="cls-2" d="m45.74,13.27l-18.99-6.34c2.55,2.79,4.11,6.5,4.12,10.56,0,3.21-1,6.29-2.74,8.85,1.75,2.56,2.76,5.63,2.77,8.85,0,3.84-1.38,7.37-3.67,10.1l7.13,2.38c1.95.65,4.01-.42,4.66-2.37l9.12-27.34c.64-1.95-.44-4.06-2.39-4.7m-5.04,20.15h-2.56s-5.27-7.09-5.27-7.09l5.36-7.1h2.58s-5.37,7.11-5.37,7.11l5.27,7.08Z"/><rect class="cls-2" x="62.23" y="14.79" width="5" height="29.85"/><path class="cls-2" d="m74.14,14.79v29.85h9.09c7.73-.02,11.39-2.75,11.39-8.21,0-3.42-1.94-6.02-5.14-6.98l-.3-.09.29-.12c2.98-1.26,4.4-3.41,4.41-6.65,0-5.1-3.48-7.79-10.52-7.8h-9.22m8.23,16.64c3.57,0,7,.57,7.01,4.63,0,1.46-.5,2.64-1.59,3.32-1.08.68-2.72.99-5.01.99h-3.64v-8.94h3.23m1.64-12.39c1.44,0,4.86.49,4.87,3.96,0,1.91-.77,2.99-2.02,3.54-1.25.56-2.97.63-4.9.63h-2.81v-8.13h4.87"/><path class="cls-2" d="m122.65,14.79c-1.58,1.65-13.43,14.15-13.43,14.15,0,0,12.86,13.95,14.48,15.7h-6.97c-.65-.75-11.67-13.46-11.67-13.46v13.46h-5V14.79h5v12.07s10.52-11.41,11.14-12.07h6.45"/><path class="cls-2" d="m178.98,31.84v3.06h-12.15v-3.06h-3.96v12.67h20.15v-12.68h-4.04m0,5.95v3.63h-12.15v-3.63h12.15Zm-7.9-9.63c1.47-1.11,2.42-2.62,2.79-4.36h5.13v6.49h4v-15.49h-4v6.12h-5.09c-.3-1.85-1.19-3.38-2.71-4.55-1.52-1.17-3.31-1.78-5.36-1.78-2.19,0-4.12.72-5.78,2.16-1.67,1.43-2.52,3.26-2.51,5.47,0,2.18.83,4,2.51,5.45,1.66,1.46,3.59,2.18,5.78,2.18,1.99,0,3.74-.56,5.23-1.68Zm-8.29-2.56c-.8-.92-1.2-2.02-1.2-3.35,0-1.33.41-2.43,1.23-3.31.81-.87,1.81-1.31,3.03-1.31,1.31,0,2.31.44,3.06,1.31.75.89,1.13,1.98,1.13,3.32s-.38,2.43-1.16,3.35c-.79.91-1.81,1.36-3.1,1.36-1.19,0-2.17-.45-2.99-1.37Zm-13.03-10.81v29.86h3.99V14.78h-3.99Zm-20.11,3.67h10.46v2.27c-.15,7.2-5.19,13.19-11.94,14.78l-.18.04,2.04,2.52.08-.02c7.68-2.25,14.03-9.4,14.03-17.26v-5.24h-14.5v2.91Z"/><polyline class="cls-2" points="194.86 34.88 190.83 34.88 190.83 44.53 210.97 44.53 210.97 41.65 194.86 41.65 194.86 34.88"/><path class="cls-2" d="m207.06,15.84c-1.86-1.27-4.09-1.91-6.69-1.91s-4.84.64-6.69,1.91c-1.86,1.28-2.8,3.08-2.8,5.36s.95,4.02,2.8,5.29c1.85,1.26,4.09,1.89,6.69,1.89s4.83-.63,6.69-1.89c1.86-1.27,2.8-3.05,2.8-5.29s-.94-4.07-2.8-5.36m-2.8,8.48c-1.01.82-2.3,1.23-3.89,1.23s-2.85-.41-3.85-1.23c-1-.82-1.51-1.85-1.51-3.13s.5-2.34,1.51-3.21c1.01-.88,2.29-1.32,3.85-1.32s2.88.44,3.88,1.32c1.01.87,1.51,1.93,1.51,3.21s-.49,2.3-1.5,3.13Z"/><rect class="cls-2" x="187.01" y="29.88" width="26.58" height="3.12"/><path class="cls-2" d="m237.36,34.98c-1.79-1.06-3.91-1.58-6.41-1.58s-4.64.52-6.42,1.58c-1.78,1.05-2.67,2.51-2.67,4.38s.89,3.29,2.67,4.34c1.78,1.04,3.91,1.56,6.42,1.56s4.62-.52,6.41-1.56c1.77-1.04,2.66-2.49,2.66-4.34s-.89-3.34-2.66-4.38m-2.65,6.68c-.98.61-2.23.91-3.76.91s-2.75-.3-3.74-.91c-.97-.61-1.47-1.37-1.47-2.31s.5-1.72,1.47-2.37c.99-.64,2.24-.97,3.74-.97s2.79.32,3.76.97c.98.64,1.47,1.42,1.47,2.37s-.49,1.7-1.47,2.31Z"/><rect class="cls-2" x="217.29" y="15.18" width="9.04" height="2.68"/><polyline class="cls-2" points="237.03 14.79 237.03 21.68 234.77 21.68 234.77 14.79 230.95 14.79 230.95 31.67 234.77 31.67 234.77 24.37 237.03 24.37 237.03 32.83 240.85 32.83 240.85 14.79 237.03 14.79"/><path class="cls-2" d="m229.59,18.83h-13.88v2.66h2.91c-1.69,1.09-2.79,2.82-2.79,4.8,0,3.31,3.06,5.99,6.84,5.99s6.85-2.68,6.85-5.99c0-1.98-1.11-3.71-2.8-4.8h2.87v-2.66m-6.93,11.04c-1.79,0-3.24-1.6-3.24-3.57s1.45-3.57,3.24-3.57,3.26,1.6,3.26,3.57-1.46,3.57-3.26,3.57Z"/></g></svg>