<?xml version="1.0" encoding="utf-8"?>
<!-- Generator: Adobe Illustrator 27.5.0, SVG Export Plug-In . SVG Version: 6.00 Build 0)  -->
<svg version="1.1" xmlns="http://www.w3.org/2000/svg" xmlns:xlink="http://www.w3.org/1999/xlink" x="0px" y="0px"
	 viewBox="0 0 196.47 60" style="enable-background:new 0 0 196.47 60;" xml:space="preserve">
<style type="text/css">
	.st0{fill:#E0D8CE;}
	.st1{opacity:0.8;fill:#E0D8CE;}
	.st2{fill:none;stroke:#415649;stroke-width:0.25;stroke-miterlimit:10;}
	.st3{fill:none;stroke:#4C4C4B;stroke-width:0.25;stroke-miterlimit:10;}
	.st4{fill:#4A423F;}
	.st5{fill:#6F6967;}
	.st6{fill:#655F5D;}
	.st7{fill:url(#SVGID_1_);}
	.st8{fill:url(#SVGID_00000146495087060147802100000017483844910233640840_);}
	.st9{fill:url(#SVGID_00000126300675605987547790000007285551400085122996_);}
	.st10{fill:none;stroke:#ECE1D6;stroke-width:3;stroke-miterlimit:10;}
	.st11{fill:#ECE1D6;}
	.st12{fill:url(#SVGID_00000152967114354053295100000012829557740098591649_);}
	.st13{fill:url(#SVGID_00000138535285385901487010000003164742828728327817_);}
	.st14{fill:none;stroke:#ECE1D6;stroke-width:2.5;stroke-miterlimit:10;}
	.st15{opacity:0.7;fill:#ECE1D6;}
	
		.st16{opacity:0.5;clip-path:url(#SVGID_00000152245769898805802700000005463676913370297261_);fill:url(#SVGID_00000162323846092881409850000002660483929804807858_);}
	
		.st17{clip-path:url(#SVGID_00000016043037636200799320000015838038257127386016_);fill:url(#SVGID_00000071546009596250375690000004397600825203512451_);}
	
		.st18{clip-path:url(#SVGID_00000075853284125977998450000007049801717979159698_);fill:url(#SVGID_00000171717534974996920430000013511121730969421737_);}
	
		.st19{opacity:0.5;clip-path:url(#SVGID_00000041285630899651753710000015547640131635481783_);fill:url(#SVGID_00000111907510710091684730000001297647293005343880_);}
	
		.st20{opacity:0.5;clip-path:url(#SVGID_00000066484593956572093710000010517727594667139515_);fill:url(#SVGID_00000039833432529148137600000007080613316797423026_);}
	.st21{clip-path:url(#SVGID_00000166652958295004624110000007525352527094699452_);fill:#ECE1D6;}
	.st22{fill:#DFD7CE;}
	.st23{fill:url(#SVGID_00000171714390884429809320000000821057895305787791_);}
	.st24{fill:url(#SVGID_00000104677948283595509680000007578844145945746321_);}
	.st25{fill:url(#SVGID_00000082354988274029693800000013192278336088843696_);}
	.st26{fill:#4C4C4B;}
	.st27{fill:url(#SVGID_00000145047090124437351180000011134131311542419883_);}
	.st28{fill:url(#SVGID_00000150824831169154594540000007575243503588817032_);}
	
		.st29{opacity:0.5;clip-path:url(#SVGID_00000142862272963773950810000005883235082900050849_);fill:url(#SVGID_00000013194983712145522440000013606272088214362252_);}
	
		.st30{clip-path:url(#SVGID_00000114050410668904624020000000696828386299325312_);fill:url(#SVGID_00000159464793307404842780000002236837502848852881_);}
	
		.st31{clip-path:url(#SVGID_00000165197098359625753910000010349126349556964772_);fill:url(#SVGID_00000089540206161189146050000001815296219169903288_);}
	
		.st32{opacity:0.5;clip-path:url(#SVGID_00000070083236481535504890000014362838685452271503_);fill:url(#SVGID_00000117639334040469952270000015224763736530735266_);}
	
		.st33{opacity:0.5;clip-path:url(#SVGID_00000006686989771888462250000000548425180864040325_);fill:url(#SVGID_00000024720333819147829200000003218303440061268379_);}
	.st34{clip-path:url(#SVGID_00000105398107629975925810000007004029673088315782_);fill:#4C4C4B;}
	.st35{fill:none;stroke:#2096D5;stroke-miterlimit:10;}
	.st36{fill-rule:evenodd;clip-rule:evenodd;fill:#E0D8CE;}
	.st37{fill:none;stroke:#00A0E9;stroke-width:10;stroke-miterlimit:10;}
	.st38{fill:none;stroke:#E0D8CE;stroke-miterlimit:10;}
	.st39{opacity:0.7;fill:#E0D7CE;}
	.st40{fill:#E0D7CE;}
	.st41{clip-path:url(#SVGID_00000127016645664392838290000017034970548015719857_);}
	.st42{clip-path:url(#SVGID_00000132064982741762461520000005943841572254303877_);}
	.st43{clip-path:url(#SVGID_00000105417251935425085700000010105164147219228843_);}
	.st44{clip-path:url(#SVGID_00000105409022995574097900000010532868840052101052_);}
	.st45{clip-path:url(#SVGID_00000099654059166970525190000017809952257083161754_);}
	.st46{clip-path:url(#SVGID_00000013903957695163101340000016574520839220115849_);}
	.st47{fill:#F1EBE3;}
	.st48{clip-path:url(#SVGID_00000088828600542302243220000015130703616039823746_);}
	.st49{fill-rule:evenodd;clip-rule:evenodd;fill:#E0D7CE;}
	.st50{display:none;}
	.st51{display:inline;fill:none;stroke:#00A0E9;stroke-width:10;stroke-miterlimit:10;}
	.st52{display:inline;fill:none;stroke:#E0D8CE;stroke-miterlimit:10;}
</style>
<g id="레이어_2">
</g>
<g id="레이어_1">
	<g>
		<path class="st0" d="M81.57,44.8L71.36,33V44.8h-4.33V18.42h4.33v12.03l10.25-12.03h5.43L75.58,31.63L87.23,44.8H81.57z"/>
		<path class="st0" d="M97.1,45.14c-1.97,0-3.76-0.45-5.35-1.35c-1.59-0.9-2.85-2.16-3.76-3.8c-0.91-1.63-1.37-3.52-1.37-5.68
			c0-2.13,0.47-4.01,1.4-5.66c0.94-1.65,2.21-2.91,3.83-3.8c1.62-0.89,3.43-1.33,5.43-1.33c2,0,3.81,0.44,5.43,1.33
			c1.62,0.89,2.9,2.15,3.83,3.8c0.94,1.65,1.4,3.53,1.4,5.66c0,2.13-0.48,4.01-1.44,5.66c-0.96,1.65-2.27,2.92-3.93,3.81
			C100.93,44.69,99.1,45.14,97.1,45.14z M97.1,41.38c1.11,0,2.16-0.27,3.13-0.8c0.97-0.53,1.76-1.33,2.37-2.39
			c0.61-1.06,0.91-2.35,0.91-3.87s-0.29-2.8-0.87-3.85c-0.58-1.05-1.35-1.84-2.32-2.37c-0.96-0.53-2-0.8-3.11-0.8
			c-1.11,0-2.14,0.27-3.09,0.8c-0.95,0.53-1.7,1.32-2.26,2.37c-0.56,1.05-0.84,2.33-0.84,3.85c0,2.25,0.58,3.99,1.73,5.22
			C93.91,40.77,95.35,41.38,97.1,41.38z"/>
		<path class="st0" d="M115.63,16.71V44.8h-4.33V16.71H115.63z"/>
		<path class="st0" d="M145.5,23.54c1.65,0,3.12,0.34,4.42,1.02c1.3,0.68,2.33,1.7,3.07,3.04c0.75,1.34,1.12,2.96,1.12,4.86V44.8
			h-4.29V33.11c0-1.87-0.47-3.31-1.4-4.31c-0.94-1-2.21-1.5-3.83-1.5c-1.62,0-2.9,0.5-3.85,1.5c-0.95,1-1.42,2.44-1.42,4.31V44.8
			h-4.29V33.11c0-1.87-0.47-3.31-1.4-4.31c-0.94-1-2.21-1.5-3.83-1.5c-1.62,0-2.9,0.5-3.85,1.5c-0.95,1-1.42,2.44-1.42,4.31V44.8
			h-4.33V23.88h4.33v2.39c0.71-0.86,1.61-1.53,2.7-2.01c1.09-0.48,2.25-0.72,3.49-0.72c1.67,0,3.16,0.35,4.48,1.06
			c1.32,0.71,2.33,1.73,3.04,3.07c0.63-1.26,1.62-2.27,2.96-3.02C142.52,23.92,143.96,23.54,145.5,23.54z"/>
		<path class="st0" d="M157.19,34.25c0-2.1,0.44-3.96,1.31-5.58c0.87-1.62,2.06-2.88,3.57-3.78c1.51-0.9,3.17-1.35,4.99-1.35
			c1.65,0,3.08,0.32,4.31,0.97c1.23,0.64,2.21,1.45,2.94,2.41v-3.04h4.37V44.8h-4.37v-3.11c-0.73,0.99-1.73,1.81-3,2.47
			c-1.27,0.66-2.71,0.99-4.33,0.99c-1.8,0-3.44-0.46-4.94-1.39c-1.49-0.92-2.68-2.21-3.55-3.87
			C157.63,38.23,157.19,36.35,157.19,34.25z M174.2,34.32c0-1.44-0.28-2.69-0.84-3.76c-0.56-1.06-1.32-1.87-2.28-2.43
			c-0.96-0.56-2-0.84-3.11-0.84c-1.11,0-2.15,0.27-3.11,0.82c-0.96,0.54-1.74,1.34-2.33,2.39c-0.59,1.05-0.89,2.3-0.89,3.74
			c0,1.44,0.3,2.71,0.89,3.8c0.59,1.09,1.38,1.92,2.35,2.49c0.97,0.57,2.01,0.85,3.09,0.85c1.11,0,2.15-0.28,3.11-0.84
			c0.96-0.56,1.72-1.37,2.28-2.45C173.92,37.03,174.2,35.77,174.2,34.32z"/>
		<path class="st0" d="M187.56,26.92c0.63-1.06,1.47-1.89,2.52-2.49c1.05-0.59,2.3-0.89,3.74-0.89v4.48h-1.1
			c-1.7,0-2.98,0.43-3.85,1.29c-0.87,0.86-1.31,2.35-1.31,4.48V44.8h-4.33V23.88h4.33V26.92z"/>
		<g>
			<g>
				<path class="st0" d="M45.43,31.75l10.5-15.1c0.1-0.14,0-0.34-0.18-0.34h-8.75c-0.17,0-0.34,0.09-0.44,0.23l-10.37,14.9
					c-0.13,0.18-0.13,0.43,0,0.61l10.37,14.9c0.1,0.14,0.26,0.23,0.44,0.23h8.75c0.17,0,0.27-0.19,0.18-0.34L45.43,31.75z"/>
			</g>
			<g>
				<path class="st0" d="M32.24,16.1l-7.88-4.09c-0.14-0.07-0.31,0.03-0.31,0.19v39.09c0,0.16,0.17,0.26,0.31,0.19l7.88-4.09
					c0.25-0.13,0.4-0.38,0.4-0.66V16.77C32.65,16.49,32.49,16.23,32.24,16.1z"/>
			</g>
			<g>
				<path class="st0" d="M21.54,28.12H11.19v-9.37c0-0.28-0.16-0.54-0.4-0.66L2.9,14c-0.14-0.07-0.31,0.03-0.31,0.19v35.12
					c0,0.16,0.17,0.26,0.31,0.19l7.88-4.09c0.25-0.13,0.4-0.38,0.4-0.66v-9.37h5.43c0.17,0,0.34-0.09,0.44-0.23l4.66-6.7
					C21.81,28.31,21.71,28.12,21.54,28.12z"/>
			</g>
		</g>
	</g>
</g>
<g id="레이어_3" class="st50">
	<rect x="-702.11" y="12.9" class="st52" width="2084.75" height="33.56"/>
</g>
</svg>
