<?xml version="1.0" encoding="utf-8"?>
<!-- Generator: Adobe Illustrator 27.5.0, SVG Export Plug-In . SVG Version: 6.00 Build 0)  -->
<svg version="1.1" xmlns="http://www.w3.org/2000/svg" xmlns:xlink="http://www.w3.org/1999/xlink" x="0px" y="0px"
	 viewBox="0 0 105.61 60" style="enable-background:new 0 0 105.61 60;" xml:space="preserve">
<style type="text/css">
	.st0{fill:#E0D8CE;}
	.st1{opacity:0.8;fill:#E0D8CE;}
	.st2{fill:none;stroke:#415649;stroke-width:0.25;stroke-miterlimit:10;}
	.st3{fill:none;stroke:#4C4C4B;stroke-width:0.25;stroke-miterlimit:10;}
	.st4{fill:#4A423F;}
	.st5{fill:#6F6967;}
	.st6{fill:#655F5D;}
	.st7{fill:url(#SVGID_1_);}
	.st8{fill:url(#SVGID_00000178926322610830695070000013940802950353046197_);}
	.st9{fill:url(#SVGID_00000112630022445121531340000016996592620553705635_);}
	.st10{fill:none;stroke:#ECE1D6;stroke-width:3;stroke-miterlimit:10;}
	.st11{fill:#ECE1D6;}
	.st12{fill:url(#SVGID_00000173152320866665314140000015991135795926600338_);}
	.st13{fill:url(#SVGID_00000058575721150075983980000010774256651883599009_);}
	.st14{fill:none;stroke:#ECE1D6;stroke-width:2.5;stroke-miterlimit:10;}
	.st15{opacity:0.7;fill:#ECE1D6;}
	
		.st16{opacity:0.5;clip-path:url(#SVGID_00000056403235201760802990000000442025568719926167_);fill:url(#SVGID_00000004544024298774639930000017105293392396577455_);}
	
		.st17{clip-path:url(#SVGID_00000059990131938568485460000001030704942251592623_);fill:url(#SVGID_00000119078550096691596350000009063418923948217022_);}
	
		.st18{clip-path:url(#SVGID_00000100351692952290723460000009889181973258163083_);fill:url(#SVGID_00000155865920962682955970000007399827727012071357_);}
	
		.st19{opacity:0.5;clip-path:url(#SVGID_00000150819877049999789850000009513378540272269736_);fill:url(#SVGID_00000026873000966030636130000016618598054367040145_);}
	
		.st20{opacity:0.5;clip-path:url(#SVGID_00000021814104491919067230000011548424966133611677_);fill:url(#SVGID_00000128471436463105358180000006504994339010748854_);}
	.st21{clip-path:url(#SVGID_00000073704156615934891270000016336343296278008765_);fill:#ECE1D6;}
	.st22{fill:#DFD7CE;}
	.st23{fill:url(#SVGID_00000155859685547236744610000008351500842859451051_);}
	.st24{fill:url(#SVGID_00000040544628429307334110000015714912178739144595_);}
	.st25{fill:url(#SVGID_00000082343123635895136010000005082769079403755414_);}
	.st26{fill:#4C4C4B;}
	.st27{fill:url(#SVGID_00000165229392190656610000000017693772520868366270_);}
	.st28{fill:url(#SVGID_00000071538475648610459500000013508576616560622233_);}
	
		.st29{opacity:0.5;clip-path:url(#SVGID_00000168832266005657705520000002276550758284319616_);fill:url(#SVGID_00000052076734579068598100000002559855147438187188_);}
	
		.st30{clip-path:url(#SVGID_00000150817256851196192240000017171808584912152213_);fill:url(#SVGID_00000054264515490574329160000017793523868676517547_);}
	
		.st31{clip-path:url(#SVGID_00000093141218211353641890000008935929563043836549_);fill:url(#SVGID_00000136391169974898808340000013121339040004073089_);}
	
		.st32{opacity:0.5;clip-path:url(#SVGID_00000167363615995238426240000012970104134194469261_);fill:url(#SVGID_00000145762196189645442400000016745381117882685372_);}
	
		.st33{opacity:0.5;clip-path:url(#SVGID_00000111906251343928434840000000946647603275852476_);fill:url(#SVGID_00000105386393876667148610000002087405251967943101_);}
	.st34{clip-path:url(#SVGID_00000018928261007358297730000003963222703307225520_);fill:#4C4C4B;}
	.st35{fill:none;stroke:#2096D5;stroke-miterlimit:10;}
	.st36{fill-rule:evenodd;clip-rule:evenodd;fill:#E0D8CE;}
	.st37{fill:none;stroke:#00A0E9;stroke-width:10;stroke-miterlimit:10;}
	.st38{fill:none;stroke:#E0D8CE;stroke-miterlimit:10;}
	.st39{opacity:0.7;fill:#E0D7CE;}
	.st40{fill:#E0D7CE;}
	.st41{clip-path:url(#SVGID_00000078022743526334015770000018433209425576799679_);}
	.st42{clip-path:url(#SVGID_00000150820498575250662470000017576889851906455742_);}
	.st43{clip-path:url(#SVGID_00000181066560574456616150000015504766561096161190_);}
	.st44{clip-path:url(#SVGID_00000057837616535350686360000011994032582131740853_);}
	.st45{clip-path:url(#SVGID_00000067940522675533778070000014079372694394604931_);}
	.st46{clip-path:url(#SVGID_00000089533903529053679180000002616559656595084944_);}
	.st47{fill:#F1EBE3;}
	.st48{clip-path:url(#SVGID_00000119819043056396639130000016620765416907744403_);}
	.st49{fill-rule:evenodd;clip-rule:evenodd;fill:#E0D7CE;}
	.st50{display:none;}
	.st51{display:inline;fill:none;stroke:#00A0E9;stroke-width:10;stroke-miterlimit:10;}
	.st52{display:inline;fill:none;stroke:#E0D8CE;stroke-miterlimit:10;}
</style>
<g id="레이어_2">
</g>
<g id="레이어_1">
	<g>
		<path class="st0" d="M46.97,7.83c0,1.42,0,2.84,0.02,4.26c0,0.28-0.16,0.23-0.32,0.23c-3.26,0-6.51,0.01-9.77-0.01
			c-0.34,0-0.42,0.08-0.42,0.42c0.02,1.7,0.01,3.4,0,5.1c0,0.26,0.06,0.34,0.33,0.34c4.21-0.01,8.41-0.01,12.62,0
			c0.25,0,0.33-0.07,0.39-0.32c0.66-3.19,1.33-6.38,1.99-9.57c0.1-0.48,0.1-0.48,0.59-0.48c1.51,0,3.02,0.01,4.53-0.01
			c0.27,0,0.41,0.07,0.51,0.33c2.17,5.46,4.35,10.93,6.54,16.39c0.04,0.1,0.09,0.2,0.13,0.31c0.12-0.08,0.13-0.21,0.17-0.31
			c2.2-5.47,4.4-10.93,6.58-16.4c0.09-0.23,0.19-0.32,0.45-0.32c1.59,0.01,3.18,0.01,4.77,0c0.25,0,0.34,0.07,0.39,0.32
			c0.56,2.84,1.14,5.67,1.72,8.5c0.02,0.11,0.05,0.22,0.09,0.4c0.3-1.17,0.72-2.23,1.33-3.19c2.27-3.59,5.5-5.72,9.7-6.39
			c0.76-0.12,1.53-0.19,2.3-0.2c0.07,0,0.16,0.03,0.21-0.07c0.18,0,0.36,0,0.54,0c0.43,0.14,0.88,0.08,1.31,0.12
			c3.72,0.29,6.95,1.65,9.61,4.31c0.17,0.17,0.21,0.25,0,0.43c-1.02,0.91-2.03,1.83-3.02,2.77c-0.26,0.25-0.4,0.21-0.63-0.02
			c-1.49-1.41-3.22-2.41-5.26-2.79c-3.03-0.57-5.85-0.15-8.34,1.81c-4.12,3.24-4.04,9.34,0.16,12.58c2.09,1.62,4.46,2.2,7.05,2.04
			c1.23-0.08,2.41-0.34,3.5-0.94c1.32-0.73,2.24-1.82,2.94-3.19c-0.17,0-0.29,0-0.4,0c-2.29,0-4.59-0.01-6.88,0.01
			c-0.31,0-0.37-0.09-0.36-0.37c0.02-1.23,0.01-2.46,0-3.69c0-0.25,0.06-0.32,0.32-0.32c4.23,0.01,8.46,0.01,12.69,0
			c0.34,0,0.31,0.19,0.32,0.4c0.16,2.84-0.71,5.37-2.38,7.64c-2.1,2.84-4.95,4.43-8.44,4.86c-3.16,0.4-6.23,0.08-9.14-1.27
			c-1.84-0.85-3.4-2.06-4.66-3.65c-0.12-0.15-0.12-0.15-0.3-0.24c0.3,1.46,0.58,2.91,0.89,4.35c0.07,0.31-0.01,0.38-0.31,0.37
			c-1.58-0.01-3.16-0.01-4.73,0c-0.24,0-0.34-0.06-0.39-0.31c-0.94-4.7-1.9-9.39-2.86-14.08c-0.06-0.32-0.13-0.63-0.22-1.05
			c-0.09,0.21-0.14,0.33-0.19,0.45c-1.96,4.89-3.93,9.78-5.88,14.67c-0.1,0.25-0.22,0.33-0.48,0.33c-1.41-0.01-2.82-0.02-4.23,0
			c-0.32,0.01-0.44-0.12-0.55-0.39c-1.96-4.93-3.93-9.85-5.9-14.77c-0.03-0.07-0.06-0.14-0.12-0.29c-0.17,0.82-0.33,1.56-0.49,2.31
			c-0.9,4.28-1.79,8.57-2.68,12.85c-0.05,0.23-0.13,0.29-0.35,0.28c-1.59-0.01-3.18,0-4.77,0c-0.39,0-0.39,0-0.31-0.39
			c0.63-2.99,1.24-5.99,1.88-8.98c0.06-0.27,0.01-0.32-0.26-0.32c-3.89,0.01-7.79,0.01-11.68,0c-0.29,0-0.32,0.11-0.32,0.35
			c0,3.1,0,6.19,0,9.29c-0.11,0.1-0.23,0.05-0.35,0.05c-2.09,0-4.19,0-6.28,0c-0.57,0-0.6-0.03-0.45-0.6
			c0.44-1.65,0.89-3.3,1.34-4.95c0.98-3.59,1.96-7.18,2.94-10.77c0.69-2.53,1.39-5.07,2.07-7.6c0.03-0.12,0.08-0.23,0.11-0.35
			c0.05-0.19,0.18-0.27,0.37-0.27c0.04,0,0.09,0,0.13,0c3.44,0,6.87,0,10.31,0C46.78,7.8,46.88,7.77,46.97,7.83z"/>
		<path class="st1" d="M46.97,7.83c-3.52,0-7.05,0-10.57-0.01c-0.23,0-0.32,0.07-0.38,0.3c-0.9,3.31-1.82,6.62-2.72,9.94
			c-0.78,2.85-1.54,5.71-2.32,8.57c-0.48,1.75-0.97,3.5-1.45,5.25c-0.12,0.43-0.11,0.44,0.34,0.44c2.07,0,4.14,0,6.21,0
			c0.13,0,0.27-0.01,0.4-0.02c-0.09,0.13-0.22,0.08-0.34,0.08c-3.92-0.01-7.83-0.02-11.75-0.02c-0.26,0-0.4-0.08-0.48-0.34
			c-1.64-4.85-3.29-9.7-4.94-14.54c-0.09-0.27-0.19-0.54-0.3-0.84c-0.15,0.12-0.16,0.26-0.2,0.38c-1.67,4.97-3.34,9.94-5,14.91
			c-0.11,0.34-0.26,0.45-0.62,0.44c-1.49-0.02-2.98-0.01-4.46,0c-0.29,0-0.41-0.09-0.48-0.37C5.88,24.51,3.84,17.03,1.79,9.55
			c-0.13-0.49-0.26-0.97-0.4-1.45C1.33,7.89,1.34,7.78,1.6,7.78c1.66,0.01,3.31,0.01,4.97,0c0.29,0,0.31,0.19,0.37,0.39
			c0.7,2.57,1.4,5.13,2.1,7.7c0.64,2.36,1.29,4.72,1.94,7.08c0.03,0.11,0.06,0.21,0.1,0.34c0.15-0.09,0.16-0.23,0.19-0.35
			c1.65-4.91,3.3-9.81,4.93-14.72c0.11-0.34,0.27-0.44,0.62-0.44c1.26,0.02,2.53,0.02,3.79,0c0.3,0,0.43,0.1,0.52,0.38
			c1.65,4.89,3.32,9.78,4.98,14.67c0.05,0.16,0.11,0.31,0.18,0.51c0.11-0.12,0.12-0.24,0.15-0.35c1.34-4.89,2.67-9.79,4.01-14.68
			c0.14-0.52,0.14-0.52,0.73-0.53c3.7-0.01,7.41-0.01,11.11-0.01c1.43,0,2.86,0,4.3,0C46.72,7.76,46.86,7.71,46.97,7.83z"/>
		<path class="st0" d="M85.58,36.02c-0.62,0-1.1-0.45-1.1-1.02c0-0.56,0.49-1,1.12-1c0.63,0,1.13,0.46,1.12,1.04
			C86.7,35.6,86.22,36.02,85.58,36.02z"/>
		<path class="st0" d="M37.67,36.01c-0.62-0.01-1.1-0.46-1.1-1.03c0-0.56,0.51-1,1.13-0.99c0.63,0.01,1.1,0.45,1.09,1.03
			C38.79,35.61,38.32,36.02,37.67,36.01z"/>
		<g>
			<path class="st0" d="M14.38,34.35c-0.35,0.02-0.69,0.02-1.04,0c-0.27-0.02-0.39,0.09-0.46,0.35c-0.38,1.51-0.77,3.01-1.16,4.51
				c-0.03,0.11-0.06,0.21-0.09,0.32c-0.11-0.14-0.16-0.26-0.2-0.39c-0.4-1.24-0.8-2.49-1.2-3.73c-0.35-1.1-0.35-1.1-1.53-1.06
				c-0.22,0.01-0.34,0.07-0.41,0.3c-0.17,0.58-0.36,1.15-0.54,1.73c-0.34,1.05-0.67,2.1-1.01,3.16c-0.03,0-0.05,0-0.08,0
				c-0.04-0.14-0.08-0.28-0.11-0.41c-0.38-1.47-0.77-2.94-1.14-4.41c-0.06-0.25-0.16-0.36-0.43-0.35c-0.39,0.02-0.78,0.01-1.17,0
				c-0.2,0-0.26,0.08-0.21,0.27c0.07,0.25,0.13,0.5,0.2,0.75c0.6,2.34,1.21,4.67,1.81,7.01c0.07,0.27,0.18,0.37,0.46,0.35
				c0.33-0.02,0.67-0.02,1.01,0c0.28,0.02,0.39-0.09,0.47-0.35c0.47-1.53,0.96-3.05,1.44-4.57c0.03-0.11,0.03-0.24,0.17-0.31
				c0.04,0.1,0.07,0.19,0.1,0.29c0.5,1.54,1,3.08,1.49,4.63c0.07,0.23,0.18,0.33,0.42,0.32c0.37-0.02,0.74-0.01,1.11,0
				c0.23,0.01,0.35-0.06,0.4-0.3c0.08-0.39,0.2-0.78,0.3-1.17c0.56-2.17,1.12-4.35,1.69-6.52C14.75,34.45,14.71,34.33,14.38,34.35z"
				/>
			<path class="st0" d="M13.73,47.87c-0.25-1.38-0.51-2.77-0.76-4.15c-0.04-0.26-0.14-0.36-0.41-0.33c-0.29,0.03-0.58,0.03-0.87,0
				c-0.29-0.03-0.43,0.07-0.53,0.36c-0.57,1.61-1.16,3.21-1.75,4.82c-0.04,0.11-0.09,0.23-0.16,0.4C8.69,47.4,8.15,45.9,7.61,44.4
				c-0.12-0.32-0.17-0.74-0.4-0.94c-0.24-0.2-0.67-0.05-1.01-0.06c-0.1-0.01-0.2,0.01-0.3,0c-0.19-0.02-0.27,0.05-0.31,0.25
				c-0.47,2.52-0.95,5.04-1.44,7.57c-0.04,0.22,0.04,0.24,0.22,0.24c0.35-0.01,0.7-0.02,1.04,0c0.28,0.02,0.35-0.1,0.4-0.35
				c0.26-1.46,0.54-2.92,0.82-4.38c0.01-0.07,0.02-0.14,0.11-0.2c0.47,1.3,0.93,2.57,1.4,3.85c0.13,0.35,0.16,0.81,0.41,1
				c0.27,0.21,0.73,0.03,1.11,0.07c0.27,0.02,0.38-0.06,0.48-0.32c0.54-1.53,1.11-3.06,1.7-4.68c0.04,0.2,0.07,0.31,0.09,0.42
				c0.26,1.43,0.54,2.85,0.78,4.28c0.05,0.27,0.16,0.32,0.39,0.31c0.31-0.02,0.63-0.03,0.94,0c0.31,0.03,0.35-0.08,0.3-0.35
				C14.12,50.03,13.93,48.95,13.73,47.87z"/>
			<path class="st0" d="M49,38.68c0.08,0.32,0.08,0.64,0.08,0.97c0,0.91,0.01,1.81,0,2.72c0,0.28,0.09,0.38,0.37,0.36
				c0.38-0.02,0.76-0.01,1.14,0c0.19,0,0.29-0.06,0.29-0.27c-0.01-1.3,0.02-2.59-0.03-3.89c-0.05-1.23-0.63-1.92-1.75-2.12
				c-1.03-0.18-1.99,0.01-2.74,0.81c-0.15,0.16-0.24,0.2-0.4-0.01c-0.34-0.46-0.81-0.74-1.38-0.82c-0.85-0.12-1.65,0.02-2.36,0.55
				c-0.07,0.05-0.13,0.15-0.23,0.11c-0.1-0.04-0.07-0.16-0.07-0.24c0.02-0.26-0.11-0.32-0.34-0.31c-0.37,0.01-0.74,0.02-1.11,0
				c-0.26-0.01-0.35,0.08-0.35,0.34c0.01,0.92,0.01,1.83,0.01,2.75c0,0.92,0.01,1.83-0.01,2.75c0,0.27,0.09,0.36,0.35,0.35
				c0.36-0.02,0.72-0.02,1.07,0c0.3,0.02,0.38-0.11,0.38-0.39c-0.01-0.85-0.01-1.7,0-2.55c0-0.37,0.02-0.74,0.16-1.09
				c0.23-0.58,0.86-0.95,1.48-0.88c0.6,0.07,0.92,0.44,1.01,1.15c0.03,0.27,0.05,0.53,0.05,0.8c0.01,0.87,0.01,1.74,0,2.62
				c0,0.25,0.08,0.34,0.33,0.33c0.29-0.01,0.58,0,0.87,0c0.62-0.01,0.59,0.09,0.6-0.6c0-0.95-0.01-1.9,0.03-2.85
				c0.04-0.91,0.68-1.49,1.51-1.46C48.53,37.84,48.86,38.12,49,38.68z"/>
			<path class="st0" d="M22.03,37.52c-0.76-0.78-1.72-1.13-2.97-1.13c-0.67-0.02-1.41,0.22-2.08,0.68
				c-1.84,1.28-1.88,3.75-0.08,5.08c1.37,1.01,3.4,0.99,4.76-0.05C23.17,40.96,23.36,38.89,22.03,37.52z M19.23,41.44
				c-1.09,0-1.88-0.75-1.87-1.8c0-1.05,0.78-1.77,1.9-1.77c1.09,0,1.87,0.74,1.87,1.77C21.12,40.67,20.31,41.44,19.23,41.44z"/>
			<path class="st0" d="M21.3,45.5c-0.28,0.01-0.56,0-0.84,0c-0.54,0-0.54,0-0.58,0.56c-1.85-1.02-3.26-0.9-4.34,0.33
				c-0.92,1.05-0.99,2.81-0.13,3.95c0.44,0.58,1,0.99,1.71,1.16c1,0.24,1.92,0.05,2.72-0.6c0.09,0.08,0.07,0.15,0.07,0.21
				c-0.05,0.29,0.08,0.36,0.35,0.34c0.35-0.02,0.69-0.01,1.04,0c0.17,0,0.24-0.04,0.24-0.22c-0.01-1.83-0.01-3.67,0-5.5
				C21.53,45.56,21.48,45.49,21.3,45.5z M18.19,50.22c-1,0-1.77-0.77-1.76-1.77c0.01-0.99,0.76-1.72,1.76-1.72
				c1.03,0,1.78,0.74,1.77,1.74C19.96,49.48,19.2,50.22,18.19,50.22z"/>
			<path class="st0" d="M36.44,45.4c-1.35,0.18-2.41,1.21-2.65,2.57c-0.24,1.33,0.38,2.6,1.58,3.23c0.85,0.44,1.75,0.48,2.68,0.33
				c0.74-0.12,1.36-0.47,1.87-1.03c0.16-0.18,0.14-0.25-0.08-0.34c-0.3-0.11-0.6-0.25-0.89-0.39c-0.16-0.08-0.27-0.07-0.42,0.05
				c-0.65,0.48-1.38,0.56-2.13,0.32c-0.47-0.15-0.8-0.47-0.99-0.94c-0.1-0.24-0.05-0.31,0.21-0.31c0.77,0.01,1.54,0,2.31,0
				c0.77,0,1.54,0,2.31,0c0.16,0,0.28,0,0.28-0.22c-0.01-0.91-0.23-1.72-0.9-2.37C38.73,45.43,37.63,45.24,36.44,45.4z M38.83,47.68
				c-0.06,0.1-0.18,0.05-0.28,0.05c-0.47,0.01-0.94,0-1.41,0c-0.49,0-0.98,0-1.48,0c-0.19,0-0.27-0.01-0.15-0.23
				c0.63-1.12,2.53-1.17,3.22-0.09C38.79,47.5,38.89,47.58,38.83,47.68z"/>
			<path class="st0" d="M30.51,48.52c-0.16-0.15-0.16-0.24,0-0.39c0.38-0.36,0.74-0.75,1.1-1.12c0.46-0.48,0.92-0.96,1.45-1.51
				c-0.43,0-0.78,0.04-1.11-0.01c-0.7-0.11-1.16,0.18-1.61,0.69c-0.51,0.58-1.12,1.07-1.68,1.59c0-0.01,0-0.06,0-0.12
				c0-1.37-0.01-2.75,0-4.12c0-0.25-0.04-0.37-0.32-0.35c-0.34,0.03-0.69,0.02-1.04,0c-0.2-0.01-0.27,0.05-0.27,0.26
				c0.01,0.68,0,1.36,0,2.05c0,1.88,0,3.76,0,5.63c0,0.2,0,0.34,0.27,0.32c0.36-0.02,0.72-0.02,1.07,0
				c0.22,0.01,0.29-0.06,0.28-0.28c-0.01-0.69-0.01-1.39,0-2.08c0-0.09-0.06-0.2,0.11-0.3c0.8,0.81,1.6,1.64,2.41,2.46
				c0.08,0.08,0.14,0.19,0.26,0.2c0.64,0,1.28,0,1.99,0c-0.13-0.14-0.2-0.22-0.28-0.3C32.27,50.27,31.39,49.39,30.51,48.52z"/>
			<path class="st0" d="M54.1,47.51c-0.01-1.44-1.09-2.35-2.52-2.15C51,45.45,50.51,45.72,50,46.08c0-0.12-0.01-0.18,0-0.23
				c0.05-0.28-0.06-0.37-0.34-0.35c-0.33,0.03-0.67,0.01-1.01,0c-0.19-0.01-0.28,0.03-0.28,0.25c0.01,1.82,0.01,3.64,0,5.46
				c0,0.2,0.08,0.24,0.26,0.24c0.36-0.01,0.72-0.02,1.07,0c0.24,0.01,0.3-0.06,0.3-0.3c-0.01-0.9,0-1.81,0.01-2.72
				c0-0.44,0.09-0.87,0.37-1.23c0.31-0.39,0.85-0.58,1.32-0.44c0.49,0.14,0.68,0.5,0.72,0.98c0.01,0.18,0.04,0.36,0.04,0.53
				c0.01,0.96,0.01,1.92,0.01,2.88c0,0.21,0.05,0.3,0.28,0.28c0.35-0.02,0.69-0.02,1.04,0c0.25,0.02,0.32-0.07,0.32-0.32
				C54.1,49.93,54.11,48.72,54.1,47.51z"/>
			<path class="st0" d="M43.99,45.5c-0.26,0-0.36-0.06-0.35-0.33c0.02-0.54,0-1.07,0.01-1.61c0-0.19-0.06-0.25-0.25-0.25
				c-0.37,0.01-0.74,0.02-1.11,0c-0.22-0.01-0.29,0.05-0.29,0.28c0.01,0.55,0,1.1,0.01,1.64c0,0.17-0.02,0.26-0.23,0.27
				c-0.6,0.02-0.6,0.03-0.6,0.63c0,0.04,0,0.09,0,0.13c0,0.52,0,0.54,0.53,0.53c0.23,0,0.31,0.05,0.3,0.3
				c-0.02,0.68-0.01,1.36-0.01,2.04c0,0.66,0.01,1.32-0.01,1.98c-0.01,0.25,0.04,0.37,0.33,0.34c0.33-0.03,0.67-0.02,1.01,0
				c0.27,0.02,0.31-0.09,0.31-0.33c-0.01-1.33,0-2.66-0.01-3.99c0-0.24,0.04-0.36,0.32-0.35c0.64,0.02,0.64,0,0.64-0.65
				C44.61,45.51,44.61,45.49,43.99,45.5z"/>
			<path class="st0" d="M32.62,42.72c0.39-0.01,0.78-0.01,1.17,0c0.27,0.01,0.35-0.09,0.35-0.35c-0.02-0.78-0.01-1.56-0.01-2.35
				c0-0.55-0.02-1.1,0.17-1.62c0.15-0.42,0.5-0.74,0.8-0.63c0.5,0.19,0.59-0.12,0.7-0.46c0.05-0.16,0.11-0.32,0.19-0.47
				c0.13-0.24,0.07-0.37-0.2-0.42c-0.61-0.11-1.15,0.01-1.6,0.47c-0.06,0.06-0.09,0.16-0.23,0.17c-0.01-0.06-0.03-0.1-0.02-0.15
				c0.04-0.31-0.1-0.42-0.4-0.39c-0.3,0.02-0.6,0.01-0.91,0c-0.2-0.01-0.28,0.07-0.28,0.28c0,1.88,0,3.75,0,5.63
				C32.34,42.65,32.42,42.73,32.62,42.72z"/>
			<path class="st0" d="M25.95,45.4c-0.72-0.18-1.26,0.1-1.73,0.73c-0.01-0.13-0.02-0.2-0.01-0.26c0.05-0.3-0.07-0.39-0.37-0.37
				c-0.28,0.02-0.56,0.01-0.84,0c-0.18-0.01-0.26,0.04-0.26,0.24c0.01,1.82,0.01,3.64,0,5.46c0,0.19,0.05,0.26,0.25,0.25
				c0.39-0.01,0.78-0.01,1.17,0c0.19,0.01,0.25-0.07,0.24-0.25c-0.01-0.76-0.02-1.52-0.02-2.28c0-0.55-0.01-1.1,0.16-1.62
				c0.17-0.52,0.48-0.7,0.99-0.56c0.17,0.04,0.22-0.02,0.26-0.15c0.1-0.28,0.2-0.57,0.33-0.84C26.23,45.52,26.15,45.45,25.95,45.4z"
				/>
			<path class="st0" d="M36.78,39.63c0,0.92,0.01,1.83,0,2.75c0,0.26,0.08,0.36,0.35,0.35c0.39-0.02,0.78-0.01,1.17,0
				c0.2,0,0.28-0.08,0.28-0.28c0-1.88,0-3.75,0-5.63c0-0.2-0.07-0.28-0.28-0.28c-0.39,0.01-0.78,0.01-1.17,0
				c-0.26-0.01-0.35,0.08-0.35,0.34C36.78,37.8,36.78,38.71,36.78,39.63z"/>
			<path class="st0" d="M46.64,45.5c-0.35,0.01-0.69,0.02-1.04,0c-0.24-0.01-0.33,0.05-0.32,0.31c0.02,0.88,0.01,1.76,0.01,2.64
				c0,0.9,0.01,1.81,0,2.71c0,0.21,0.05,0.3,0.28,0.29c0.37-0.02,0.74-0.01,1.11,0c0.18,0.01,0.25-0.05,0.25-0.24
				c-0.01-1.82-0.01-3.64,0-5.46C46.91,45.53,46.83,45.49,46.64,45.5z"/>
			<path class="st0" d="M46.14,43.05c-0.58-0.01-1.04,0.4-1.05,0.94c-0.01,0.57,0.45,1.01,1.03,1c0.55,0,1.01-0.42,1.02-0.95
				C47.15,43.51,46.71,43.06,46.14,43.05z"/>
			<path class="st0" d="M29.96,42.21c1.73-1.24,1.85-3.57,0.25-4.93c-1.23-1.04-3.19-1.21-4.56-0.37c-1.02,0.62-1.65,1.49-1.66,2.95
				c-0.01,0.49,0.21,1.13,0.66,1.67C25.93,43.07,28.33,43.38,29.96,42.21z M27.68,37.87c1.09,0.01,1.88,0.74,1.88,1.76
				c0,1.05-0.83,1.82-1.95,1.81c-1.07-0.01-1.85-0.77-1.85-1.79C25.76,38.6,26.55,37.87,27.68,37.87z"/>
		</g>
		<g>
			<path class="st0" d="M75.54,47.35c-0.95,0-1.9-0.01-2.85,0c-0.37,0-0.86-0.16-1.07,0.06c-0.24,0.25-0.05,0.74-0.08,1.13
				c-0.02,0.22,0.07,0.28,0.28,0.28c0.72-0.01,1.43,0,2.21,0c-0.29,0.57-0.69,0.94-1.23,1.14c-0.59,0.22-1.2,0.23-1.82,0.13
				c-1.32-0.22-2.39-1.32-2.45-2.53c-0.06-1.3,0.81-2.44,2.14-2.75c1.22-0.29,2.33-0.02,3.28,0.82c0.15,0.13,0.24,0.14,0.38,0
				c0.25-0.24,0.5-0.49,0.77-0.7c0.24-0.18,0.17-0.29-0.01-0.45c-1.55-1.34-3.35-1.6-5.22-1.02c-3.06,0.95-3.95,4.34-2,6.64
				c1.27,1.5,3.95,2.03,5.8,1.11c1.4-0.69,2.17-1.85,2.27-3.43C75.97,47.36,75.95,47.35,75.54,47.35z"/>
			<path class="st0" d="M62.07,45.7c0-0.17-0.08-0.21-0.23-0.2c-0.23,0-0.47,0-0.7,0c-0.62,0-0.62,0-0.75,0.54
				c-1.27-0.65-1.66-0.76-2.32-0.69c-0.87,0.09-1.58,0.47-2.11,1.16c-0.84,1.08-0.76,2.85,0.13,3.89c0.95,1.1,2.94,1.48,4.31,0.39
				c0.09,0.65-0.08,1.12-0.57,1.34c-0.85,0.39-1.71,0.4-2.52-0.14c-0.12-0.08-0.22-0.13-0.37-0.13c-0.44,0.01-0.87,0.01-1.31,0
				c-0.28-0.01-0.26,0.09-0.16,0.29c0.26,0.53,0.64,0.94,1.17,1.2c1,0.49,2.05,0.53,3.11,0.32c1.44-0.28,2.16-1.09,2.26-2.55
				C62.14,49.32,62.05,47.51,62.07,45.7z M58.8,50.06c-1.04,0.01-1.77-0.67-1.78-1.64c-0.01-0.96,0.75-1.68,1.75-1.67
				c1.01,0.01,1.73,0.69,1.74,1.65C60.51,49.39,59.82,50.05,58.8,50.06z"/>
			<path class="st0" d="M102.1,46.31c-0.89-0.98-2.67-1.45-4.27-0.23c-0.01-0.11-0.02-0.18-0.01-0.24c0.05-0.28-0.07-0.37-0.35-0.35
				c-0.32,0.02-0.65,0.02-0.97,0c-0.25-0.02-0.32,0.07-0.32,0.32c0.01,1.55,0.01,3.11,0.01,4.66c0,0.96,0.01,1.92,0,2.88
				c0,0.22,0.06,0.3,0.28,0.28c0.3-0.02,0.6,0,0.91,0c0.5-0.01,0.45,0.06,0.45-0.45c0-0.76,0-1.51,0-2.35
				c0.74,0.6,1.51,0.84,2.39,0.73c0.89-0.11,1.6-0.55,2.12-1.27C103.19,49.15,103.07,47.37,102.1,46.31z M99.51,50.22
				c-1.02,0-1.76-0.74-1.76-1.75c0-1.01,0.73-1.73,1.77-1.73c1.01,0,1.74,0.72,1.74,1.72C101.27,49.47,100.52,50.22,99.51,50.22z"/>
			<path class="st0" d="M67.65,42.37c-0.06,0.31,0.08,0.38,0.37,0.36c0.37-0.02,0.74-0.02,1.11,0c0.26,0.02,0.32-0.08,0.31-0.32
				c-0.01-1.6,0-3.19-0.01-4.79c0-0.34,0.15-0.8-0.06-1c-0.22-0.22-0.68-0.06-1.03-0.07c-0.64-0.01-0.64,0-0.73,0.61
				c-0.72-0.58-1.53-0.82-2.43-0.76c-0.93,0.06-1.7,0.45-2.29,1.16c-0.94,1.12-0.97,2.9-0.07,4.03c0.5,0.63,1.14,1.06,1.94,1.23
				c1.05,0.22,2.01,0.01,2.89-0.7C67.65,42.25,67.67,42.31,67.65,42.37z M65.79,41.47c-1.1-0.03-1.88-0.83-1.86-1.87
				c0.03-1.07,0.85-1.81,1.97-1.78c1.11,0.03,1.86,0.82,1.83,1.91C67.7,40.75,66.86,41.5,65.79,41.47z"/>
			<path class="st0" d="M81.41,38.91c0.02,0.12,0.02,0.25,0.02,0.37c0.01,1.05,0.02,2.1,0.02,3.15c0,0.24,0.07,0.31,0.3,0.3
				c0.39-0.02,0.78-0.01,1.17,0c0.2,0.01,0.28-0.04,0.28-0.26c-0.01-1.31,0-2.62-0.01-3.92c-0.01-0.91-0.4-1.6-1.27-1.95
				c-1-0.4-1.95-0.23-2.85,0.33c-0.08,0.05-0.16,0.18-0.25,0.12c-0.11-0.06-0.06-0.2-0.06-0.31c0-0.76-0.01-1.52,0-2.28
				c0.01-0.26-0.08-0.33-0.33-0.32c-0.38,0.02-0.76,0.02-1.14,0c-0.28-0.02-0.33,0.09-0.32,0.34c0.01,1.31,0.01,2.62,0.01,3.92
				c0,1.34,0,2.68,0,4.02c0,0.21,0.05,0.3,0.27,0.29c0.39-0.02,0.78-0.02,1.17,0c0.26,0.01,0.34-0.06,0.34-0.33
				c0-1.03-0.04-2.06,0.02-3.08c0.03-0.48,0.21-0.89,0.59-1.19c0.41-0.32,0.87-0.4,1.36-0.22C81.21,38.08,81.35,38.47,81.41,38.91z"
				/>
			<path class="st0" d="M91.33,36.39c-1.12,0-2.07,0.4-2.82,1.19c-0.99,1.05-1.09,2.66-0.25,3.82c1.31,1.8,4.23,2.02,5.82,0.43
				c1.23-1.22,1.29-3.02,0.11-4.28C93.43,36.75,92.45,36.39,91.33,36.39z M91.35,41.44c-1.09,0-1.88-0.75-1.88-1.79
				c0-1.04,0.78-1.78,1.89-1.78c1.12,0,1.89,0.73,1.88,1.78C93.24,40.68,92.44,41.44,91.35,41.44z"/>
			<path class="st0" d="M96.68,42.73c0.4-0.01,0.81-0.02,1.21,0c0.26,0.01,0.34-0.06,0.34-0.33c0-1.04-0.04-2.08,0.04-3.11
				c0.03-0.34,0.14-0.65,0.35-0.93c0.33-0.44,0.91-0.64,1.43-0.5c0.55,0.14,0.76,0.54,0.81,1.06c0.02,0.21,0.04,0.42,0.04,0.63
				c0.01,0.96,0.01,1.92,0.01,2.88c0,0.21,0.04,0.3,0.27,0.29c0.41-0.02,0.83-0.02,1.24,0c0.22,0.01,0.26-0.08,0.26-0.27
				c-0.01-1.32,0.01-2.64-0.01-3.95c-0.01-0.99-0.5-1.64-1.43-1.96c-0.5-0.18-1.01-0.18-1.52-0.09c-0.54,0.09-0.99,0.38-1.5,0.71
				c0-0.14-0.01-0.21,0-0.27c0.04-0.27-0.05-0.37-0.34-0.35c-0.39,0.03-0.78,0.01-1.17,0c-0.17,0-0.26,0.02-0.26,0.23
				c0.01,1.91,0.01,3.82,0,5.73C96.45,42.68,96.51,42.73,96.68,42.73z"/>
			<path class="st0" d="M56.72,42.73c0.4-0.02,0.81-0.02,1.21,0c0.24,0.01,0.3-0.07,0.3-0.3c-0.01-1.02,0.01-2.03-0.01-3.05
				c-0.01-0.31,0.06-0.43,0.4-0.42c0.74,0.03,1.48,0,2.21,0.01c0.22,0,0.29-0.07,0.28-0.29c-0.01-0.32-0.02-0.65,0-0.97
				c0.01-0.24-0.08-0.3-0.31-0.3c-0.77,0.01-1.54,0-2.31,0.01c-0.2,0-0.28-0.05-0.27-0.26c0.01-0.3,0.02-0.6,0-0.9
				c-0.02-0.26,0.06-0.35,0.33-0.34c0.76,0.02,1.52,0,2.28,0.01c0.23,0,0.29-0.07,0.28-0.29c-0.01-0.32-0.02-0.65,0-0.97
				c0.02-0.26-0.07-0.32-0.32-0.32c-1.35,0.01-2.71,0.01-4.06,0c-0.28,0-0.33,0.09-0.33,0.35c0.01,1.28,0,2.57,0,3.85
				c0,1.28,0.01,2.57-0.01,3.85C56.4,42.66,56.46,42.75,56.72,42.73z"/>
			<path class="st0" d="M84.82,45.4c-1.56-0.23-3.03,0.44-3.66,1.71c-0.5,1-0.48,2.02,0.14,2.96c0.7,1.08,1.75,1.55,3.09,1.53
				c0.19-0.03,0.44-0.05,0.69-0.1c1.67-0.38,2.79-1.96,2.49-3.52C87.31,46.64,86.21,45.61,84.82,45.4z M84.2,50.19
				c-1.02,0-1.74-0.7-1.75-1.72c-0.01-0.97,0.76-1.73,1.76-1.73c1.01,0.01,1.75,0.73,1.75,1.73C85.95,49.48,85.22,50.19,84.2,50.19z
				"/>
			<path class="st0" d="M94.04,45.5c-0.34,0.01-0.8-0.15-1.01,0.06c-0.23,0.22-0.06,0.68-0.07,1.03c-0.03,0.89,0.06,1.79-0.05,2.68
				c-0.05,0.43-0.3,0.72-0.7,0.86c-0.81,0.28-1.51-0.14-1.63-0.98c-0.03-0.2-0.03-0.4-0.03-0.6c0-0.93-0.01-1.86,0-2.78
				c0-0.2-0.06-0.28-0.26-0.27c-0.37,0.01-0.74,0.01-1.11,0c-0.2-0.01-0.27,0.06-0.27,0.27c0.01,0.57,0,1.14,0,1.71
				c0.01,0,0.02,0,0.04,0c0,0.56-0.02,1.12,0,1.67c0.03,0.72,0.28,1.35,0.83,1.84c0.55,0.48,1.21,0.6,1.9,0.62
				c1.69,0.03,2.76-0.89,2.86-2.44c0.06-1.04,0.02-2.08,0.04-3.12C94.59,45.5,94.58,45.49,94.04,45.5z"/>
			<path class="st0" d="M74.76,42.48c1.13-0.74,1.16-2.18,0.06-2.97c-0.27-0.2-0.57-0.35-0.88-0.49c-0.35-0.16-0.69-0.31-1.04-0.47
				c-0.16-0.08-0.33-0.18-0.3-0.4c0.03-0.23,0.23-0.28,0.42-0.32c0.14-0.03,0.29-0.02,0.43,0.02c0.29,0.08,0.54,0.22,0.76,0.41
				c0.13,0.11,0.22,0.13,0.36,0c0.23-0.23,0.47-0.45,0.72-0.65c0.21-0.16,0.15-0.27-0.01-0.42c-0.6-0.55-1.3-0.81-2.17-0.8
				c-0.59-0.01-1.18,0.15-1.67,0.6c-0.71,0.66-0.73,1.6-0.06,2.29c0.39,0.4,0.88,0.64,1.38,0.87c0.32,0.14,0.64,0.26,0.92,0.47
				c0.14,0.11,0.28,0.24,0.25,0.44c-0.04,0.21-0.2,0.32-0.39,0.38c-0.42,0.14-0.78-0.01-1.16-0.17c-0.27-0.11-0.45-0.51-0.74-0.39
				c-0.27,0.11-0.46,0.41-0.69,0.63c-0.06,0.05-0.11,0.12-0.17,0.16c-0.16,0.12-0.12,0.21,0,0.34
				C71.73,42.98,73.64,43.21,74.76,42.48z"/>
			<path class="st0" d="M80.04,45.39c-0.71-0.16-1.24,0.12-1.69,0.71c-0.06-0.61-0.06-0.61-0.63-0.61c-0.02,0-0.04,0-0.07,0
				c-0.78,0-0.78,0-0.78,0.78c0,1.61,0.01,3.22-0.01,4.82c0,0.28,0.08,0.37,0.36,0.35c0.33-0.02,0.67-0.02,1.01,0
				c0.23,0.01,0.28-0.07,0.28-0.29c-0.01-0.84-0.01-1.68,0-2.51c0.01-0.47,0.01-0.94,0.17-1.39c0.18-0.49,0.49-0.66,0.98-0.53
				c0.17,0.05,0.22-0.02,0.26-0.15c0.1-0.27,0.19-0.55,0.32-0.81C80.35,45.53,80.28,45.44,80.04,45.39z"/>
			<path class="st0" d="M84.95,42.73c0.41-0.01,0.83-0.02,1.24,0c0.22,0.01,0.28-0.07,0.28-0.28c-0.01-0.94,0-1.88,0-2.82
				c0-0.94,0-1.88,0-2.82c0-0.19-0.03-0.28-0.25-0.27c-0.42,0.02-0.85,0.01-1.28,0c-0.19-0.01-0.25,0.06-0.25,0.25
				c0.01,1.9,0.01,3.8,0,5.7C84.7,42.69,84.77,42.73,84.95,42.73z"/>
		</g>
	</g>
</g>
<g id="레이어_3" class="st50">
	<rect x="-1736.55" y="13.22" class="st52" width="2084.75" height="33.56"/>
</g>
</svg>
