<?xml version="1.0" encoding="utf-8"?>
<!-- Generator: Adobe Illustrator 27.5.0, SVG Export Plug-In . SVG Version: 6.00 Build 0)  -->
<svg version="1.1" xmlns="http://www.w3.org/2000/svg" xmlns:xlink="http://www.w3.org/1999/xlink" x="0px" y="0px"
	 viewBox="0 0 327.29 60" style="enable-background:new 0 0 327.29 60;" xml:space="preserve">
<style type="text/css">
	.st0{fill:#E0D8CE;}
	.st1{opacity:0.8;fill:#E0D8CE;}
	.st2{fill:none;stroke:#415649;stroke-width:0.25;stroke-miterlimit:10;}
	.st3{fill:none;stroke:#4C4C4B;stroke-width:0.25;stroke-miterlimit:10;}
	.st4{fill:#4A423F;}
	.st5{fill:#6F6967;}
	.st6{fill:#655F5D;}
	.st7{fill:url(#SVGID_1_);}
	.st8{fill:url(#SVGID_00000172441837598044591370000007708192461121976233_);}
	.st9{fill:url(#SVGID_00000060008012550474971590000008230020521739374768_);}
	.st10{fill:none;stroke:#ECE1D6;stroke-width:3;stroke-miterlimit:10;}
	.st11{fill:#ECE1D6;}
	.st12{fill:url(#SVGID_00000101803273027373065940000015627282271598818476_);}
	.st13{fill:url(#SVGID_00000137828785479726961760000016509052357996043414_);}
	.st14{fill:none;stroke:#ECE1D6;stroke-width:2.5;stroke-miterlimit:10;}
	.st15{opacity:0.7;fill:#ECE1D6;}
	
		.st16{opacity:0.5;clip-path:url(#SVGID_00000079485226633609951950000013791196815986184853_);fill:url(#SVGID_00000172400413040769445550000010363186193102393021_);}
	
		.st17{clip-path:url(#SVGID_00000098927421555961306260000006037460106893383557_);fill:url(#SVGID_00000101813012491297074400000005741918695030125194_);}
	
		.st18{clip-path:url(#SVGID_00000148626349133342614250000005299670832176798849_);fill:url(#SVGID_00000175316010960426413530000003671741492067988405_);}
	
		.st19{opacity:0.5;clip-path:url(#SVGID_00000009548155134085716520000005788758501428771486_);fill:url(#SVGID_00000102504316752478765850000012908170123055287184_);}
	
		.st20{opacity:0.5;clip-path:url(#SVGID_00000008840034695795337940000007080003266820361856_);fill:url(#SVGID_00000018924990298953410530000014198285736009164205_);}
	.st21{clip-path:url(#SVGID_00000062899575849770416970000010561988552176097726_);fill:#ECE1D6;}
	.st22{fill:#DFD7CE;}
	.st23{fill:url(#SVGID_00000155866789994193392460000013059152304143081115_);}
	.st24{fill:url(#SVGID_00000134242658469208673350000002731540701700658068_);}
	.st25{fill:url(#SVGID_00000107585378561225481530000009543183072730648216_);}
	.st26{fill:#4C4C4B;}
	.st27{fill:url(#SVGID_00000170266568680548495890000010361203644117449904_);}
	.st28{fill:url(#SVGID_00000162353089206360609010000013992257417546314161_);}
	
		.st29{opacity:0.5;clip-path:url(#SVGID_00000077285006979680450250000016352154087879055520_);fill:url(#SVGID_00000103975391708514119900000005734781909792427199_);}
	
		.st30{clip-path:url(#SVGID_00000177469605873693912810000005946736611610938253_);fill:url(#SVGID_00000013177695059472590090000003097130993706035357_);}
	
		.st31{clip-path:url(#SVGID_00000072963401371950357870000010970422816212050822_);fill:url(#SVGID_00000130626359992594033520000001362243139124513408_);}
	
		.st32{opacity:0.5;clip-path:url(#SVGID_00000062184663455841204100000012271050494770505641_);fill:url(#SVGID_00000122704826500206292080000011172867157309646236_);}
	
		.st33{opacity:0.5;clip-path:url(#SVGID_00000034090809412591707300000002844310291056373152_);fill:url(#SVGID_00000103950485892431629840000007066973594659491734_);}
	.st34{clip-path:url(#SVGID_00000051351943500209547530000010852423531101089976_);fill:#4C4C4B;}
	.st35{fill:none;stroke:#2096D5;stroke-miterlimit:10;}
	.st36{fill-rule:evenodd;clip-rule:evenodd;fill:#E0D8CE;}
	.st37{fill:none;stroke:#00A0E9;stroke-width:10;stroke-miterlimit:10;}
	.st38{opacity:0.7;fill:#E0D7CE;}
	.st39{fill:#E0D7CE;}
	.st40{display:none;}
	.st41{display:inline;fill:none;stroke:#00A0E9;stroke-width:10;stroke-miterlimit:10;}
	.st42{display:inline;fill:none;stroke:#E0D8CE;stroke-miterlimit:10;}
</style>
<g id="레이어_2">
	<g>
		<path class="st0" d="M61.36,26.9H42.09v-6.38h19.27V26.9z M61.36,14.85H42.17c-0.03,0-0.05,0-0.08,0v0c-3.26,0-5.9,2.54-5.9,5.67
			v18.43c0,3.13,2.64,5.67,5.9,5.67v-0.01c0.03,0,0.06,0.01,0.08,0.01h19.19c3.26,0,5.9-2.54,5.9-5.67H42.09v-6.38h19.27
			c3.26,0,5.9-2.54,5.9-5.67v-6.38C67.26,17.38,64.62,14.85,61.36,14.85"/>
		<path class="st0" d="M96.75,26.9H77.48v-6.38h19.27V26.9z M96.75,14.85H77.56c-0.03,0-0.05,0-0.08,0v0c-3.26,0-5.9,2.54-5.9,5.67
			v18.43c0,3.13,2.64,5.67,5.9,5.67V32.57h10.5l12.55,12.05c2.31-2.21,2.81-5.32,1.13-6.94l-5.33-5.11h0.42
			c3.26,0,5.9-2.54,5.9-5.67v-6.38C102.65,17.38,100.01,14.85,96.75,14.85"/>
		<path class="st0" d="M138.04,20.52c0-3.13-2.64-5.67-5.9-5.67h-19.19c-0.03,0-0.05,0-0.08,0v0c-3.26,0-5.9,2.54-5.9,5.67v18.43
			c0,3.13,2.64,5.67,5.9,5.67v-0.01c0.03,0,0.05,0.01,0.08,0.01h19.19c3.26,0,5.9-2.54,5.9-5.67h-25.17V20.52H138.04z"/>
		<path class="st0" d="M173.52,20.52c0-3.13-2.64-5.67-5.9-5.67h-19.19c-0.03,0-0.06,0-0.08,0v0c-3.26,0-5.9,2.54-5.9,5.67v18.43
			c0,3.13,2.64,5.67,5.9,5.67v-0.01c0.03,0,0.05,0.01,0.08,0.01h19.19c3.26,0,5.9-2.54,5.9-5.67h-25.17v-6.38h19.27
			c3.26,0,5.9-2.54,5.9-5.67h-25.17v-6.38H173.52z"/>
		<path class="st0" d="M203.08,14.85H183.9c-0.03,0-0.05,0-0.08,0v0c-3.26,0-5.9,2.54-5.9,5.67v18.43c0,3.13,2.64,5.67,5.9,5.67
			v-24.1h19.27v24.1c3.26,0,5.9-2.54,5.9-5.67V20.51C208.99,17.38,206.34,14.85,203.08,14.85"/>
		<path class="st0" d="M238.39,14.85H219.2c-3.26,0-5.9,2.54-5.9,5.67h12.54v18.43c0,3.13,2.64,5.67,5.9,5.67v-24.1h12.55
			C244.29,17.38,241.65,14.85,238.39,14.85"/>
		<path class="st0" d="M284.03,38.95h-19.27V20.51h19.27V38.95z M284.03,14.85h-19.19c-0.03,0-0.05,0-0.08,0v0
			c-3.26,0-5.9,2.54-5.9,5.67v18.43c0,3.13,2.64,5.67,5.9,5.67v-0.01c0.03,0,0.05,0.01,0.08,0.01h19.19c3.26,0,5.9-2.54,5.9-5.67
			V20.51C289.94,17.38,287.29,14.85,284.03,14.85"/>
		<path class="st0" d="M300.16,20.52h25.17c0-3.13-2.64-5.67-5.9-5.67h-19.18c-0.03,0-0.05,0-0.08,0v0c-3.26,0-5.9,2.54-5.9,5.67
			v18.43c0,3.13,2.64,5.67,5.9,5.67V32.57h14.47c2.64,0,4.78-2.54,4.78-5.67h-19.25V20.52z"/>
		<path class="st0" d="M25.97,26.9H6.7v-6.38h19.27V26.9z M25.97,14.85H6.78c-0.03,0-0.05,0-0.08,0v0c-3.26,0-5.9,2.54-5.9,5.67
			v18.43c0,3.13,2.64,5.67,5.9,5.67V32.57h19.27c3.26,0,5.9-2.54,5.9-5.67v-6.38C31.88,17.38,29.23,14.85,25.97,14.85"/>
	</g>
</g>
<g id="레이어_1">
</g>
<g id="레이어_3" class="st40">
	<rect x="-264.7" y="13.26" class="st42" width="2084.75" height="33.56"/>
</g>
</svg>
