<?xml version="1.0" encoding="utf-8"?>
<!-- Generator: Adobe Illustrator 27.5.0, SVG Export Plug-In . SVG Version: 6.00 Build 0)  -->
<svg version="1.1" xmlns="http://www.w3.org/2000/svg" xmlns:xlink="http://www.w3.org/1999/xlink" x="0px" y="0px"
	 viewBox="0 0 198.99 60" style="enable-background:new 0 0 198.99 60;" xml:space="preserve">
<style type="text/css">
	.st0{fill:#E0D8CE;}
	.st1{opacity:0.8;fill:#E0D8CE;}
	.st2{fill:none;stroke:#415649;stroke-width:0.25;stroke-miterlimit:10;}
	.st3{fill:none;stroke:#4C4C4B;stroke-width:0.25;stroke-miterlimit:10;}
	.st4{fill:#4A423F;}
	.st5{fill:#6F6967;}
	.st6{fill:#655F5D;}
	.st7{fill:url(#SVGID_1_);}
	.st8{fill:url(#SVGID_00000145036799697340903600000015464149801498303902_);}
	.st9{fill:url(#SVGID_00000152955464753080700500000011624262666918575244_);}
	.st10{fill:none;stroke:#ECE1D6;stroke-width:3;stroke-miterlimit:10;}
	.st11{fill:#ECE1D6;}
	.st12{fill:url(#SVGID_00000103963513529168356220000007181334328151711125_);}
	.st13{fill:url(#SVGID_00000137120269593653346400000015983416007392502956_);}
	.st14{fill:none;stroke:#ECE1D6;stroke-width:2.5;stroke-miterlimit:10;}
	.st15{opacity:0.7;fill:#ECE1D6;}
	
		.st16{opacity:0.5;clip-path:url(#SVGID_00000160184600413215688420000000559632135730209685_);fill:url(#SVGID_00000034088277009877551740000000938113619936077971_);}
	
		.st17{clip-path:url(#SVGID_00000144301619305645811160000007768455245124103811_);fill:url(#SVGID_00000088103413201401443610000003787920250475554199_);}
	
		.st18{clip-path:url(#SVGID_00000183950404641225805190000011332761484650607267_);fill:url(#SVGID_00000145045303130133903750000003381423114725118652_);}
	
		.st19{opacity:0.5;clip-path:url(#SVGID_00000113325742760111722900000005451626592984687544_);fill:url(#SVGID_00000057133708147169309590000002411046283513187227_);}
	
		.st20{opacity:0.5;clip-path:url(#SVGID_00000057853261412549714630000008757047781518743967_);fill:url(#SVGID_00000164504970063494050950000013313289352901987474_);}
	.st21{clip-path:url(#SVGID_00000177451811548893203950000002566079836987956107_);fill:#ECE1D6;}
	.st22{fill:#DFD7CE;}
	.st23{fill:url(#SVGID_00000039823140271998713520000002145196707117974659_);}
	.st24{fill:url(#SVGID_00000145018387888080108890000000197081058202263950_);}
	.st25{fill:url(#SVGID_00000169539511426615387420000013499642304775584414_);}
	.st26{fill:#4C4C4B;}
	.st27{fill:url(#SVGID_00000132081427629645421700000001662946559499768974_);}
	.st28{fill:url(#SVGID_00000104701480644485669240000001401333102539808959_);}
	
		.st29{opacity:0.5;clip-path:url(#SVGID_00000124843820885095446200000004181761421997584533_);fill:url(#SVGID_00000040577271897429194170000004616095117203532208_);}
	
		.st30{clip-path:url(#SVGID_00000096057940582672197930000002465252810868724143_);fill:url(#SVGID_00000165225765184379645130000018147265875365252756_);}
	
		.st31{clip-path:url(#SVGID_00000116956802049435348810000006855383162126099385_);fill:url(#SVGID_00000081641078975326931530000010729744991720622487_);}
	
		.st32{opacity:0.5;clip-path:url(#SVGID_00000013886363815101904620000012830848834851989644_);fill:url(#SVGID_00000109744211552835173930000007758618747071294872_);}
	
		.st33{opacity:0.5;clip-path:url(#SVGID_00000058585574629812022500000009648775469260336019_);fill:url(#SVGID_00000063620431391407047060000008506617394835244949_);}
	.st34{clip-path:url(#SVGID_00000052791822924071656170000017896783765761101730_);fill:#4C4C4B;}
	.st35{fill:none;stroke:#2096D5;stroke-miterlimit:10;}
	.st36{fill-rule:evenodd;clip-rule:evenodd;fill:#E0D8CE;}
	.st37{fill:none;stroke:#00A0E9;stroke-width:10;stroke-miterlimit:10;}
	.st38{fill:none;stroke:#E0D8CE;stroke-miterlimit:10;}
	.st39{opacity:0.7;fill:#E0D7CE;}
	.st40{fill:#E0D7CE;}
	.st41{clip-path:url(#SVGID_00000123428985177788944400000008213824689944083380_);}
	.st42{clip-path:url(#SVGID_00000063632168620268250040000004540588182033298110_);}
	.st43{clip-path:url(#SVGID_00000088844891075213158840000003984384298723923089_);}
	.st44{clip-path:url(#SVGID_00000003096927100885279780000013202811803909375673_);}
	.st45{clip-path:url(#SVGID_00000021077812529098189040000017107238266242734015_);}
	.st46{clip-path:url(#SVGID_00000033351263419255354970000012110911570545720985_);}
	.st47{fill:#F1EBE3;}
	.st48{clip-path:url(#SVGID_00000168090640443348011390000006769309264535537843_);}
	.st49{fill-rule:evenodd;clip-rule:evenodd;fill:#E0D7CE;}
	.st50{display:none;}
	.st51{display:inline;fill:none;stroke:#00A0E9;stroke-width:10;stroke-miterlimit:10;}
	.st52{display:inline;fill:none;stroke:#E0D8CE;stroke-miterlimit:10;}
</style>
<g id="레이어_2">
</g>
<g id="레이어_1">
	<g>
		<polygon class="st0" points="6.79,14.57 1.76,14.57 1.76,44.78 24.08,44.78 24.08,40.42 6.79,40.42 		"/>
		<path class="st0" d="M46.9,14.57L32.63,44.78h4.95l4.46-9.42h11.32l4.5,9.42h4.84L48.62,14.57H46.9z M51.37,31H44.1l3.64-7.69
			L51.37,31z"/>
		<path class="st0" d="M89.11,15.01c-1.44-0.3-4.09-0.44-8.1-0.44h-7.64v30.21h5.03V31.47h1.65c4.36,0,7.26-0.16,8.89-0.48
			c2.28-0.46,4.11-1.37,5.43-2.72c1.36-1.39,2.05-3.16,2.05-5.27c0-2.1-0.71-3.88-2.1-5.28C92.97,16.35,91.21,15.44,89.11,15.01z
			 M91.27,23c0,0.81-0.25,1.52-0.77,2.18c-0.53,0.68-1.24,1.15-2.19,1.46c-1.01,0.33-2.66,0.49-4.9,0.49l-5.02-0.05v-8.12h5.27
			c2.22,0,3.82,0.16,4.76,0.47c0.87,0.29,1.56,0.76,2.08,1.43C91.02,21.52,91.27,22.22,91.27,23z"/>
		<path class="st0" d="M115.02,19.11c1.75-1.1,3.66-1.64,5.72-1.64c1.88,0,3.61,0.42,5.19,1.25c1.57,0.84,2.92,2.07,4.05,3.69
			l2.04-1.73c-1.24-1.91-2.83-3.39-4.77-4.45c-1.94-1.06-4.12-1.59-6.53-1.59c-3.99,0-7.31,1.43-9.96,4.29
			c-2.65,2.86-3.98,6.39-3.98,10.57c0,3.98,1.09,7.38,3.28,10.19c2.61,3.33,6.17,5,10.69,5c2.37,0,4.53-0.5,6.45-1.49
			c1.92-0.99,3.53-2.4,4.82-4.21l-2.04-1.71c-2.43,3.14-5.46,4.71-9.07,4.71c-3.29,0-6.01-1.17-8.17-3.5
			c-2.16-2.33-3.24-5.25-3.24-8.73c0-2.31,0.48-4.39,1.45-6.24C111.91,21.68,113.27,20.2,115.02,19.11z"/>
		<path class="st0" d="M153.3,14.64c-2.41,0-4.65,0.67-6.71,2c-2.07,1.33-3.7,3.17-4.9,5.52c-1.2,2.35-1.8,4.89-1.8,7.64
			c0,4.13,1.32,7.64,3.95,10.54c2.63,2.91,5.86,4.36,9.68,4.36c3.77,0,6.97-1.46,9.6-4.38c2.62-2.92,3.94-6.47,3.94-10.66
			c0-4.23-1.32-7.79-3.95-10.68C160.47,16.09,157.21,14.64,153.3,14.64z M162.96,35.88c-0.95,1.87-2.28,3.34-3.98,4.42
			c-1.7,1.08-3.55,1.62-5.55,1.62c-2.99,0-5.55-1.17-7.68-3.51c-2.12-2.34-3.19-5.22-3.19-8.62c0-2.3,0.48-4.38,1.44-6.25
			s2.29-3.35,4-4.46c1.71-1.1,3.52-1.66,5.42-1.66c1.94,0,3.78,0.55,5.51,1.66c1.73,1.1,3.07,2.57,4.03,4.41
			c0.95,1.84,1.43,3.89,1.43,6.16C164.39,31.94,163.91,34.01,162.96,35.88z"/>
		<path class="st0" d="M194.98,32.7c-1.19-1.43-3.38-3.05-6.58-4.88c-2.69-1.54-4.28-2.5-4.77-2.86c-0.89-0.69-1.5-1.32-1.83-1.91
			c-0.33-0.58-0.5-1.19-0.5-1.81c0-1.02,0.47-1.89,1.42-2.59c0.94-0.7,2.16-1.05,3.65-1.05c1.15,0,2.22,0.23,3.2,0.68
			c0.98,0.45,2.16,1.4,3.55,2.82l3.01-1.77c-1.69-1.79-3.29-3.02-4.81-3.69c-1.51-0.67-3.14-1-4.88-1c-1.64,0-3.16,0.3-4.56,0.89
			c-1.4,0.59-2.48,1.4-3.25,2.42c-0.77,1.03-1.15,2.16-1.15,3.41c0,1.57,0.65,3.03,1.96,4.38c0.75,0.81,2.67,2.11,5.75,3.91
			c3.06,1.79,5.17,3.32,6.33,4.59c0.84,0.92,1.25,1.86,1.25,2.82c0,0.84-0.28,1.64-0.85,2.39c-0.57,0.75-1.4,1.35-2.48,1.8
			c-1.09,0.45-2.25,0.67-3.49,0.67c-2.89,0-5.45-1.58-7.65-4.73l-3.14,1.46c1.54,2.18,3.22,3.73,5.04,4.66
			c1.82,0.93,3.86,1.39,6.1,1.39c2.91,0,5.38-0.77,7.42-2.3c2.03-1.53,3.05-3.33,3.05-5.41C196.76,35.56,196.17,34.12,194.98,32.7z"
			/>
	</g>
</g>
<g id="레이어_3" class="st50">
	<rect x="-702.83" y="12.45" class="st52" width="2084.75" height="33.56"/>
</g>
</svg>
