<?xml version="1.0" encoding="UTF-8"?><svg xmlns="http://www.w3.org/2000/svg" viewBox="0 0 225.52 60"><defs><style>.cls-1{fill:none;stroke:#009fe8;stroke-miterlimit:10;stroke-width:10px;}.cls-2{fill:#dfd7cd;}</style></defs><g id="_레이어_2"><rect class="cls-1" x="-1878.2" y="-376.02" width="2154.32" height="1174.2"/><rect class="cls-1" x="-163.2" y="-463.71" width="2154.32" height="1174.2"/></g><g id="_레이어_1"><path class="cls-2" d="m44.02,39.86c-5.78,0-8.08-4.01-8.08-9.71,0-4.92,2.3-9.33,8.08-9.33h9.69c1.82,0,3.28-.05,4.41-2.04l1.81-3.39h-17.46c-7.92,0-13.93,6.52-13.93,14.97,0,7.6,4.86,13.75,11.65,14.81,0,0,.54.11,2.01.11h6.88c5.57,0,10.83-3.14,10.83-9.41s-3.59-8.88-8.73-8.88h-3.44c-1.81,0-3.28.05-4.42,2.03l-1.8,3.4h7.53c2.56,0,3.76,1.51,3.76,3.58s-1.23,3.86-3.71,3.86h-5.07Z"/><path class="cls-2" d="m10.33,32.44c-.17-.21-.53-.53-1.11-.32-.35.11-.46.43-.5.68v12.39H1.73V15.51h6.99v12.58l10.95-10.39c1.03-.97,1.78-1.53,2.82-1.84.7-.21,1.52-.31,2.64-.35h4.68l-14.25,13.2,13.63,16.47h-5.39c-3.43,0-4.77-1.97-6.57-4.19-1.24-1.52-6.44-7.98-6.89-8.55Z"/><path class="cls-2" d="m84.78,45.29h0c1.82,0,3.28-.06,4.42-2.04l1.8-3.39h-12.48c-5.79,0-8.09-4.01-8.09-9.71,0-4.92,2.3-9.33,8.09-9.33h6.26c1.82,0,3.28-.05,4.42-2.04l1.8-3.39h-14.04c-7.93,0-13.94,6.52-13.94,14.97,0,7.6,4.86,13.75,11.65,14.81,0,0,.55.11,2.01.11h8.1Z"/><path class="cls-2" d="m204.18,20.36v-5.18h-4.52v5.18c0,7.52-3.81,11.87-7.77,14.19l1.99,2.85c3.05-1.69,6-4.3,8.04-7.83,2.03,3.54,4.99,6.15,8.03,7.83l2-2.85c-3.96-2.32-7.77-6.67-7.77-14.19Z"/><path class="cls-2" d="m219.68,23.33v-7.85h-4.42v30.29h4.42v-19.38h2.82c.85-.01,1.41-.2,1.71-1.03l.75-2.03h-5.28Z"/><path class="cls-2" d="m175.39,31.28c-6.1,0-11.04,2.41-11.04,7.25s4.94,7.24,11.04,7.24,11.03-2.42,11.03-7.24-4.94-7.25-11.03-7.25Zm0,11.57c-3.6,0-6.51-1.66-6.51-4.32s2.91-4.33,6.51-4.33,6.51,1.67,6.51,4.33-2.91,4.32-6.51,4.32Z"/><path class="cls-2" d="m105.44,40.88v-7.19h-4.39v8.35s-.01.07-.01.11c0,1.64,1.33,2.97,2.98,2.97h18.16c.84-.01,1.41-.21,1.7-1.03l.75-2.03h-18.05c-.79,0-1.13-.47-1.13-1.18Z"/><rect class="cls-2" x="119.17" y="15.51" width="4.42" height="19.51"/><path class="cls-2" d="m137.08,23.14c2.46,4.37,7.92,7.49,7.92,7.49l1.79-3.11c-5.67-2.78-7.51-8.52-7.51-10.69v-1.62h-4.43v1.62c0,2.18-1.8,7.91-7.48,10.69l1.79,3.11s5.45-3.13,7.92-7.49Z"/><path class="cls-2" d="m154.74,15.51h-4.42v15.08h4.42v-6.31h2.68c.85,0,1.41-.2,1.71-1.03l.74-2.03h-5.14v-5.72Z"/><path class="cls-2" d="m114.25,23.05c0-5.32-3.67-8.48-8.67-8.48s-8.66,3.16-8.66,8.48,3.67,8.47,8.66,8.47,8.67-3.16,8.67-8.47Zm-12.76,0c0-3.49,1.98-5.65,4.09-5.65s4.1,2.16,4.1,5.65-1.97,5.65-4.1,5.65-4.09-2.16-4.09-5.65Z"/><path class="cls-2" d="m132.69,32.76v9.27s-.01.07-.01.11c0,1.64,1.32,2.96,2.97,2.96h19.09v-12.35h-22.05Zm5.52,9.3c-.79,0-1.13-.47-1.13-1.18v-5.06h12.11c.8,0,1.13.47,1.13,1.18v5.06h-12.11Z"/><path class="cls-2" d="m186.33,15.51h-23.01l.75,2.03c.3.82.86,1.02,1.71,1.03h14.79c.95,0,1.35.56,1.35,1.41v6.72h-7.08v-5.07h-4.41v3.89c0,.72-.35,1.17-1.13,1.17h-8.44l.75,2.03c.3.83.86,1.02,1.71,1.02h26.23v-3.06h-3.22v-11.18Z"/><rect class="cls-2" x="1.73" y="21.13" width=".5" height=".28"/><rect class="cls-2" x="1.73" y="45.1" width=".5" height=".28"/><rect class="cls-2" x="73.88" y="21.17" width=".28" height=".5"/><rect class="cls-2" x="73.88" y="44.72" width=".28" height=".5"/><rect class="cls-2" x="78.67" y="21.17" width=".28" height=".5"/><rect class="cls-2" x="78.67" y="44.72" width=".28" height=".5"/></g></svg>