<?xml version="1.0" encoding="UTF-8"?><svg id="_레이어_2" xmlns="http://www.w3.org/2000/svg" viewBox="0 0 193.04 60"><defs><style>.cls-1{fill:none;stroke:#009fe8;stroke-miterlimit:10;stroke-width:10px;}.cls-2{fill:#dfd7cd;}</style></defs><rect class="cls-1" x="-886.44" y="-376.02" width="2154.32" height="1174.2"/><path class="cls-2" d="m107.69,19.14c-8.1,0-12.96,5.01-12.96,11.19s4.85,11.18,12.96,11.18,12.97-5,12.97-11.18-4.87-11.19-12.97-11.19m0,19.98c-3.88,0-6.84-3.94-6.84-8.78s2.96-8.78,6.84-8.78,6.84,3.93,6.84,8.78-2.95,8.78-6.84,8.78"/><polygon class="cls-2" points="121.76 22.44 130.3 22.44 130.3 40.59 136.73 40.59 136.73 22.44 143.93 22.44 143.93 19.96 121.76 19.96 121.76 22.44"/><polygon class="cls-2" points="146.28 22.44 153.47 22.44 153.47 40.59 159.9 40.59 159.9 22.44 168.44 22.44 168.44 19.96 146.28 19.96 146.28 22.44"/><path class="cls-2" d="m81.93,36.89v-16.93h-6.17v18.17c0,1.36,1.1,2.46,2.46,2.46h15.78v-2.47h-10.83c-.68,0-1.24-.55-1.24-1.23"/><path class="cls-2" d="m179.35,22.4h11.87v-2.44h-16.82c-1.36,0-2.46,1.09-2.46,2.45v15.72c0,1.36,1.1,2.46,2.46,2.46h16.82v-2.44h-11.87c-.69,0-1.23-.56-1.23-1.23v-6.08h12.91v-2.42h-12.91v-4.8c0-.67.54-1.22,1.23-1.22"/><path class="cls-2" d="m56.06,17.9l-12.34-12.34c-6.68-6.68-17.61-6.68-24.3,0l-12.34,12.34C.4,24.58.4,35.51,7.08,42.19l12.34,12.34c6.68,6.68,17.61,6.68,24.3,0l12.34-12.34c6.68-6.68,6.68-17.62,0-24.3Zm-31.74,30.28s-.05,0-.08,0c-.98,0-1.78-.77-1.82-1.75-.02-.49.15-.95.48-1.31.33-.36.78-.57,1.27-.59,1-.05,1.86.74,1.9,1.75.04,1-.74,1.86-1.75,1.9Zm21.93-7.62c-2.5,3.98-5.81,6.78-8.84,7.48,0,0-.04.01-.08.02-.56.1-1.1.15-1.62.15-1.96,0-3.34-.75-4.32-1.39-.97-.64-1.88-1.5-2.7-2.55-5.22-6.7-5.57-19.26-5.6-20.68-.06-3.34.42-7.87,3.04-10.47,1.27-1.26,2.87-1.91,4.75-1.91h.3c1.88,0,3.48.64,4.75,1.91,2.61,2.59,3.09,7.12,3.04,10.47-.06,3.48-.7,10.23-4.31,16.28-.29.49-.83.8-1.41.8-.3,0-.58-.08-.84-.23-.77-.46-1.03-1.47-.57-2.25,2.53-4.23,3.75-8.89,3.85-14.66.07-3.82-.67-6.7-2.07-8.09-.65-.65-1.45-.96-2.45-.96h-.29c-1,0-1.8.31-2.45.96-1.4,1.39-2.13,4.26-2.07,8.09.08,4.71,1.2,13.96,4.91,18.72.6.77,1.25,1.39,1.92,1.83.65.43,1.39.85,2.53.85.31,0,.64-.03.99-.09,2.13-.51,4.79-2.88,6.77-6.02.3-.48.82-.77,1.39-.77.31,0,.61.09.87.25.37.23.63.6.73,1.02.1.43.02.87-.21,1.23Z"/></svg>